<svg xmlns="http://www.w3.org/2000/svg" width="47.22" height="62.188" viewBox="0 0 47.22 62.188">
  <metadata><?xpacket begin="﻿" id="W5M0MpCehiHzreSzNTczkc9d"?>
<x:xmpmeta xmlns:x="adobe:ns:meta/" x:xmptk="Adobe XMP Core 5.6-c138 79.159824, 2016/09/14-01:09:01        ">
   <rdf:RDF xmlns:rdf="http://www.w3.org/1999/02/22-rdf-syntax-ns#">
      <rdf:Description rdf:about=""/>
   </rdf:RDF>
</x:xmpmeta>
                                                                                                    
                                                                                                    
                                                                                                    
                                                                                                    
                                                                                                    
                                                                                                    
                                                                                                    
                                                                                                    
                                                                                                    
                                                                                                    
                                                                                                    
                                                                                                    
                                                                                                    
                                                                                                    
                                                                                                    
                                                                                                    
                                                                                                    
                                                                                                    
                                                                                                    
                                                                                                    
                           
<?xpacket end="w"?></metadata>
<defs>
    <style>
      .cls-1 {
        fill: #1bcac6;
        fill-rule: evenodd;
      }
    </style>
  </defs>
  <path id="Shape_1_copy_3" data-name="Shape 1 copy 3" class="cls-1" d="M1080.06,649h-40.9a3.163,3.163,0,0,0-3.16,3.156v55.863a3.163,3.163,0,0,0,3.16,3.156h40.9a3.163,3.163,0,0,0,3.16-3.156V652.155A3.163,3.163,0,0,0,1080.06,649Zm-42.04,12.758h43.18v43.105h-43.18V661.757Zm43.18-9.6v7.588h-28.11v-8.729h26.97A1.141,1.141,0,0,1,1081.2,652.155Zm-42.04-1.141h11.91v8.729h-13.05v-7.588A1.141,1.141,0,0,1,1039.16,651.014Zm40.9,58.145h-40.9a1.141,1.141,0,0,1-1.14-1.141v-1.142h43.18v1.142A1.141,1.141,0,0,1,1080.06,709.159Zm-20.45-42.971a14.973,14.973,0,1,0,15,14.973A15,15,0,0,0,1059.61,666.188Zm0,27.931a12.959,12.959,0,1,1,12.98-12.958A12.982,12.982,0,0,1,1059.61,694.119Zm0-35.585a3.156,3.156,0,1,0-3.16-3.156A3.163,3.163,0,0,0,1059.61,658.534Zm0-4.3a1.142,1.142,0,1,1-1.14,1.141A1.141,1.141,0,0,1,1059.61,654.237Zm-18.3,4.3h6.46a1.007,1.007,0,1,0,0-2.014h-6.46A1.007,1.007,0,0,0,1041.31,658.534Zm24.76-2.149h3.23a1.007,1.007,0,1,0,0-2.014h-3.23A1.007,1.007,0,1,0,1066.07,656.385Zm7.53,0h3.23a1.007,1.007,0,1,0,0-2.014h-3.23A1.007,1.007,0,1,0,1073.6,656.385Zm-13.99,14.1a10.676,10.676,0,1,0,10.7,10.676A10.691,10.691,0,0,0,1059.61,670.485Zm0,19.337a8.662,8.662,0,1,1,8.68-8.661A8.684,8.684,0,0,1,1059.61,689.822Z" transform="translate(-1036 -649)"/>
</svg>
