<svg xmlns="http://www.w3.org/2000/svg" width="70" height="70" viewBox="0 0 70 70">
  <metadata><?xpacket begin="﻿" id="W5M0MpCehiHzreSzNTczkc9d"?>
<x:xmpmeta xmlns:x="adobe:ns:meta/" x:xmptk="Adobe XMP Core 5.6-c138 79.159824, 2016/09/14-01:09:01        ">
   <rdf:RDF xmlns:rdf="http://www.w3.org/1999/02/22-rdf-syntax-ns#">
      <rdf:Description rdf:about=""/>
   </rdf:RDF>
</x:xmpmeta>
                                                                                                    
                                                                                                    
                                                                                                    
                                                                                                    
                                                                                                    
                                                                                                    
                                                                                                    
                                                                                                    
                                                                                                    
                                                                                                    
                                                                                                    
                                                                                                    
                                                                                                    
                                                                                                    
                                                                                                    
                                                                                                    
                                                                                                    
                                                                                                    
                                                                                                    
                                                                                                    
                           
<?xpacket end="w"?></metadata>
<defs>
    <style>
      .cls-1 {
        fill: #1bcac6;
        fill-rule: evenodd;
      }
    </style>
  </defs>
  <path id="Forma_1" data-name="Forma 1" class="cls-1" d="M1241.85,1063.22a4.085,4.085,0,1,0,4.08,4.08A4.086,4.086,0,0,0,1241.85,1063.22Zm0,5.83a1.75,1.75,0,1,1,1.75-1.75A1.754,1.754,0,0,1,1241.85,1069.05Zm53.15,2.34a6.924,6.924,0,0,0-1.8-4.66,8.222,8.222,0,0,0-.67-3.99,1.168,1.168,0,1,0-2.13.96,5.817,5.817,0,0,1,.39,1.27,7.047,7.047,0,0,0-2.8-.58,1.062,1.062,0,0,0-.19.04c-0.13-.01-0.26-0.04-0.39-0.04a5.7,5.7,0,0,0-.84.08,25.513,25.513,0,0,0-11.02-12.31,14.461,14.461,0,0,0,.75-4.58,14.6,14.6,0,0,0-29.2,0,14.919,14.919,0,0,0,.36,3.22c-1.04.34-1.96,0.67-2.7,0.96-5.12-2.05-8.45-2.75-11.43-2.42a1.571,1.571,0,0,0-1.39,1.3,1.59,1.59,0,0,0,.89,1.71c1.58,0.76,2.26,2.61,2.97,4.57,0.18,0.49.37,0.99,0.57,1.48-3.05,3.15-3.61,5.71-4.16,9.49h-1.47c-3.65,0-5.74,2.59-5.74,7.11v4.21c0,4.6,2.15,7.35,5.74,7.35h0.72a19.8,19.8,0,0,0,3.72,5.9l-1.61,4.03a4.746,4.746,0,0,0,4.41,6.51h7.87a2.413,2.413,0,0,0,2.25-1.52l0.43-1.07a43.884,43.884,0,0,0,12.29,1.68,37.317,37.317,0,0,0,10.06-1.32v0.02a3.1,3.1,0,0,0,2.98,2.21h7.03a5.083,5.083,0,0,0,4.8-6.78l-1.37-3.87a21.768,21.768,0,0,0,4.84-13.96v-0.11A7,7,0,0,0,1295,1071.39Zm-7.16,1.12-0.2.02c-0.07,0-.13.01-0.23,0.02a2.915,2.915,0,0,1-2.92-2.91,3.072,3.072,0,0,1,.05-0.53l0.03-.15a2.285,2.285,0,0,1,.12-0.37c0.02-.05.03-0.09,0.05-0.13a2.837,2.837,0,0,1,.57-0.84,1.538,1.538,0,0,1,.13-0.12,2.2,2.2,0,0,1,.23-0.2c0.07-.04.13-0.09,0.2-0.13l0.21-.12,0.24-.12h0.01a3.009,3.009,0,0,1,1.08-.21A2.91,2.91,0,0,1,1287.84,1072.51Zm-26.14-37.18a12.281,12.281,0,0,1,12.27,12.25,12.125,12.125,0,0,1-.76,4.21l-0.18.44a12.485,12.485,0,0,1-2.45,3.78c-0.14-.07-0.29-0.11-0.44-0.18-0.34-.14-0.69-0.28-1.04-0.41-0.3-.11-0.6-0.22-0.9-0.31-0.33-.1-0.67-0.18-1-0.26-0.61-.15-1.22-0.27-1.84-0.36-0.29-.04-0.58-0.09-0.88-0.11-0.36-.04-0.72-0.04-1.09-0.06-0.3-.01-0.6-0.02-0.9-0.01-0.35.01-.7,0.02-1.05,0.05-0.33.02-.66,0.06-0.99,0.1-0.31.04-.63,0.08-0.94,0.14-0.45.08-.89,0.19-1.33,0.3-0.19.05-.39,0.08-0.58,0.14a17.872,17.872,0,0,0-1.9.68c-0.14.06-.28,0.13-0.42,0.19-0.5.22-1,.47-1.48,0.74-0.07.04-.14,0.06-0.21,0.1a11.318,11.318,0,0,1-1.09-1.1l-0.13-.16a11.379,11.379,0,0,1-.85-1.12l-0.06-.09a12.483,12.483,0,0,1-1.39-2.87l-0.13-.39A12.229,12.229,0,0,1,1261.7,1035.33Zm-15.85,65.34h-7.87a2.411,2.411,0,0,1-2.24-3.31l1.24-3.1a28.585,28.585,0,0,0,9.3,5.41Zm37.29-1.17a2.747,2.747,0,0,1-2.25,1.17h-7.03a0.771,0.771,0,0,1-.74-0.55l-0.02-.06a26.045,26.045,0,0,0,9.43-5.76l0.96,2.7A2.723,2.723,0,0,1,1283.14,1099.5Zm-1.93-7.22-0.03.03a19.665,19.665,0,0,1-1.5,1.37c-0.12.11-.26,0.21-0.39,0.31-0.39.31-.79,0.61-1.21,0.89-0.17.13-.35,0.25-0.54,0.37a19.011,19.011,0,0,1-1.63.98c-0.2.11-.4,0.2-0.59,0.3-0.43.22-.86,0.43-1.3,0.62-0.25.11-.49,0.21-0.73,0.31-0.53.22-1.07,0.42-1.63,0.6a3.816,3.816,0,0,1-.36.13l-0.05.02a34.288,34.288,0,0,1-10.43,1.54,39.713,39.713,0,0,1-13.25-2.17c-0.24-.08-0.47-0.16-0.7-0.24-6.66-2.52-11.61-6.87-13.49-12.33l-0.27-.79h-2.37c-2.81,0-3.4-2.73-3.4-5.01V1075c0-4.78,2.56-4.78,3.4-4.78h3.5l0.14-1c0.62-4.38.92-6.57,4.19-9.71l0.6-.59-0.36-.75c-0.29-.63-0.54-1.32-0.81-2.05a13.258,13.258,0,0,0-2.32-4.49,30.33,30.33,0,0,1,8.65,2.46l0.44,0.18,0.45-.18c0.71-.3,1.76-0.68,2.95-1.07a17.3,17.3,0,0,0,.81,1.68,0.746,0.746,0,0,1,.07.12,15.8,15.8,0,0,0,.91,1.39l0.18,0.24c0.31,0.4.64,0.78,0.99,1.15,0.09,0.09.17,0.19,0.26,0.28,0.07,0.07.14,0.14,0.22,0.21a19.348,19.348,0,0,0-1.83,1.58,1.167,1.167,0,0,0,1.65,1.65,15.883,15.883,0,0,1,2.45-2l0.19-.12c0.35-.23.72-0.44,1.09-0.64,0.15-.08.3-0.16,0.45-0.23,0.29-.15.59-0.29,0.89-0.42l0.36-.15c0.42-.17.85-0.32,1.28-0.45,0.08-.02.15-0.04,0.22-0.06,0.43-.12.85-0.22,1.28-0.31,0.04-.01.08-0.02,0.13-0.03a16.145,16.145,0,0,1,9.03.88,0.689,0.689,0,0,1,.08.03,16.065,16.065,0,0,1,5.28,3.5,1.126,1.126,0,0,0,.82.34,1.165,1.165,0,0,0,.83-1.99,18.464,18.464,0,0,0-3.13-2.5c0.09-.1.17-0.22,0.26-0.33,0.16-.2.32-0.39,0.47-0.59s0.29-.4.42-0.61c0.11-.17.22-0.33,0.33-0.51,0.13-.22.27-0.45,0.39-0.68l0.09-.15a23.178,23.178,0,0,1,9.78,11.02,7.267,7.267,0,0,0-.67.55,0.573,0.573,0,0,1-.11.11,5.212,5.212,0,0,0-1.04,1.55,0.929,0.929,0,0,1-.05.1,5.576,5.576,0,0,0-.27.88c-0.01.06-.02,0.11-0.03,0.17a5.04,5.04,0,0,0-.1.96,5.669,5.669,0,0,0,.1,1.01c0.03,0.11.07,0.21,0.09,0.32a6.6,6.6,0,0,0,.2.63c0.05,0.12.11,0.23,0.17,0.35,0.09,0.17.18,0.35,0.28,0.51,0.08,0.12.16,0.22,0.24,0.33,0.12,0.15.23,0.29,0.36,0.43,0.09,0.1.2,0.19,0.3,0.29,0.14,0.12.28,0.24,0.43,0.35,0.11,0.08.23,0.16,0.35,0.23a3.717,3.717,0,0,0,.48.27c0.13,0.06.26,0.12,0.39,0.17a5.517,5.517,0,0,0,.54.16,3.2,3.2,0,0,0,.42.1c0.06,0.01.11,0.03,0.17,0.04,0.1,1.18.16,2.37,0.16,3.55A19.47,19.47,0,0,1,1281.21,1092.28Zm7.88-16.37c-0.03-.43-0.08-0.86-0.11-1.29a5.249,5.249,0,0,0,3.6-4.11,5.143,5.143,0,0,1,.08.88A4.663,4.663,0,0,1,1289.09,1075.91Zm-33.38-21.1a1.22,1.22,0,0,0,.72.24,1.145,1.145,0,0,0,.92-0.45,1.164,1.164,0,0,0-.2-1.64,7.365,7.365,0,0,1-2.9-5.88,7.455,7.455,0,1,1,12.51,5.46,1.164,1.164,0,1,0,1.58,1.71A9.784,9.784,0,1,0,1255.71,1054.81Zm6.48,40.03a27.689,27.689,0,0,1-14.29-2.26,1.164,1.164,0,1,0-.94,2.13,29.554,29.554,0,0,0,12.28,2.59c1.02,0,2.07-.04,3.15-0.14A1.164,1.164,0,0,0,1262.19,1094.84Z" transform="translate(-1225 -1033)"/>
</svg>
