<svg xmlns="http://www.w3.org/2000/svg" width="67.03" height="71" viewBox="0 0 67.03 71">
  <metadata><?xpacket begin="﻿" id="W5M0MpCehiHzreSzNTczkc9d"?>
<x:xmpmeta xmlns:x="adobe:ns:meta/" x:xmptk="Adobe XMP Core 5.6-c138 79.159824, 2016/09/14-01:09:01        ">
   <rdf:RDF xmlns:rdf="http://www.w3.org/1999/02/22-rdf-syntax-ns#">
      <rdf:Description rdf:about=""/>
   </rdf:RDF>
</x:xmpmeta>
                                                                                                    
                                                                                                    
                                                                                                    
                                                                                                    
                                                                                                    
                                                                                                    
                                                                                                    
                                                                                                    
                                                                                                    
                                                                                                    
                                                                                                    
                                                                                                    
                                                                                                    
                                                                                                    
                                                                                                    
                                                                                                    
                                                                                                    
                                                                                                    
                                                                                                    
                                                                                                    
                           
<?xpacket end="w"?></metadata>
<defs>
    <style>
      .cls-1 {
        fill: #1bcac6;
        fill-rule: evenodd;
      }
    </style>
  </defs>
  <path id="Shape_1_copy_5" data-name="Shape 1 copy 5" class="cls-1" d="M1489.52,691.586a1.139,1.139,0,0,0-1.46-.708,1.17,1.17,0,0,0-.7,1.487,4.531,4.531,0,0,1-1.63,5.165,4.389,4.389,0,0,1-6.16-1.092,4.511,4.511,0,0,1,1.08-6.244,4.357,4.357,0,0,1,4.89-.128,1.148,1.148,0,0,0,1.59-.367,1.181,1.181,0,0,0-.37-1.606,6.619,6.619,0,0,0-7.43.2,6.872,6.872,0,0,0-1.64,9.489,6.694,6.694,0,0,0,5.51,2.894,6.614,6.614,0,0,0,3.85-1.236A6.874,6.874,0,0,0,1489.52,691.586Zm2.27-4.353a10.734,10.734,0,0,0-14.1-2.8,10.985,10.985,0,0,0-1.98,1.52l-9.11-13.143,4.12-23.886a19.827,19.827,0,0,1,2.36,13.275l-2.34,13.58a1.163,1.163,0,0,0,.93,1.347,1.216,1.216,0,0,0,.2.018,1.153,1.153,0,0,0,1.13-.964l2.34-13.58a22.18,22.18,0,0,0-4.36-17.415,1.15,1.15,0,0,0-2.04.524l-4.21,24.406-6.42-9.268a1.138,1.138,0,0,0-1.6-.283,1.178,1.178,0,0,0-.28,1.622l14.48,20.9-2.82,4-13.77-19.878a19.822,19.822,0,0,1-3.44-13.03l3.31,4.769a1.137,1.137,0,0,0,1.6.284,1.178,1.178,0,0,0,.28-1.622l-4.93-7.109a1.141,1.141,0,0,0-1.16-.473,1.17,1.17,0,0,0-.9.877,22.22,22.22,0,0,0,3.36,17.642l10.06,14.523-0.92,5.316a10.068,10.068,0,0,0-1.59-.409,10.616,10.616,0,0,0-8.07,1.827,10.875,10.875,0,0,0-4.43,7.077,10.985,10.985,0,0,0,1.8,8.184,10.709,10.709,0,0,0,15.06,2.668,10.916,10.916,0,0,0,4.43-7.078l1.18-6.824,4.29,6.2a10.976,10.976,0,0,0,9.03,4.76,10.524,10.524,0,0,0,6.15-1.98A11.051,11.051,0,0,0,1491.79,687.233Zm-25.27,13.018a8.63,8.63,0,0,1-3.5,5.574,8.333,8.333,0,0,1-6.35,1.437,8.45,8.45,0,0,1-5.5-3.538,8.7,8.7,0,0,1,2.07-12.016,8.409,8.409,0,0,1,8.71-.651,1.133,1.133,0,0,0,1.03,0,1.15,1.15,0,0,0,.62-0.84l0.77-4.454,3.72,5.37Zm25.08-5.073a8.592,8.592,0,0,1-3.5,5.728,8.3,8.3,0,0,1-6.31,1.423,8.694,8.694,0,0,1-5.66-3.64l-5.88-8.5c-0.01,0-.01,0-0.01-0.006l-0.75-1.08,2.82-4,2.34,3.379a1.146,1.146,0,0,0,1.85.051,8.454,8.454,0,0,1,13.46.109A8.681,8.681,0,0,1,1491.6,695.178Zm-32.31-3.122a6.606,6.606,0,0,0-5.02,1.136,6.841,6.841,0,0,0,2.71,12.284,6.7,6.7,0,0,0,1.17.1,6.624,6.624,0,0,0,3.85-1.239A6.848,6.848,0,0,0,1459.29,692.056Zm3.2,7.482a4.435,4.435,0,0,1-5.12,3.643,4.48,4.48,0,0,1-3.59-5.187,4.431,4.431,0,0,1,5.12-3.643A4.481,4.481,0,0,1,1462.49,699.538Zm5.28-18.988a1.159,1.159,0,0,0-1.34.183,1.2,1.2,0,0,0-.16,1.49,1.156,1.156,0,0,0,2.09-.447A1.188,1.188,0,0,0,1467.77,680.55Zm-19.24,3.513v-0.046a3.266,3.266,0,0,0-3.2-2.71h-5.84a3.7,3.7,0,0,1-2.64-1.034h7.51a1.165,1.165,0,0,0,0-2.329H1436c-0.14-.665-0.27-1.331-0.38-2h8.09a1.165,1.165,0,0,0,0-2.33h-8.47c-0.09-.665-0.18-1.33-0.25-2h8.46a1.165,1.165,0,0,0,0-2.33h-8.68c-0.05-.665-0.1-1.331-0.13-2h8.81a1.165,1.165,0,0,0,0-2.329h-8.88q-0.015-1,0-2h8.96a1.165,1.165,0,0,0,0-2.329h-8.89c0.03-.666.08-1.331,0.13-2h8.94a1.165,1.165,0,0,0,0-2.329h-8.72c0.07-.666.16-1.332,0.25-2h8.74a1.165,1.165,0,0,0,0-2.33h-8.36c0.11-.666.24-1.332,0.38-2h8.36a1.165,1.165,0,0,0,0-2.329h-7.51a3.7,3.7,0,0,1,2.64-1.035h5.84a3.265,3.265,0,0,0,3.2-2.71v-0.043a3.311,3.311,0,0,0-.7-2.694,3.228,3.228,0,0,0-2.49-1.18h-10.95a5.912,5.912,0,0,0-5.68,4.42c-1.31,4.877-2.54,16.223-.98,42.583a1.147,1.147,0,1,0,2.29-.139c-1.22-20.616-.9-35.081.9-41.834a3.618,3.618,0,0,1,3.47-2.7h10.95a0.954,0.954,0,0,1,.73.346,1,1,0,0,1,.2.8l-0.01.03a0.946,0.946,0,0,1-.93.792h-5.84a5.42,5.42,0,0,0-5.45,3.858,70.917,70.917,0,0,0,0,31.622,5.419,5.419,0,0,0,5.45,3.858h5.84a0.946,0.946,0,0,1,.93.792l0.01,0.046a0.976,0.976,0,0,1-.2.787,0.954,0.954,0,0,1-.73.345h-3.85a4.283,4.283,0,0,0-4.23,3.99l-1.22,16.939a2.265,2.265,0,0,1-4.52.048c-0.32-3.488-.8-9.007-1.23-15.493a1.148,1.148,0,1,0-2.29.157c0.43,6.511.91,12.052,1.23,15.554a4.575,4.575,0,0,0,4.55,4.2,4.621,4.621,0,0,0,4.56-4.294l1.21-16.94a1.972,1.972,0,0,1,1.94-1.83h3.85a3.228,3.228,0,0,0,2.49-1.18A3.309,3.309,0,0,0,1448.53,684.063Z" transform="translate(-1426.97 -640)"/>
</svg>
