<svg xmlns="http://www.w3.org/2000/svg" width="50.969" height="64" viewBox="0 0 50.969 64">
  <metadata><?xpacket begin="﻿" id="W5M0MpCehiHzreSzNTczkc9d"?>
<x:xmpmeta xmlns:x="adobe:ns:meta/" x:xmptk="Adobe XMP Core 5.6-c138 79.159824, 2016/09/14-01:09:01        ">
   <rdf:RDF xmlns:rdf="http://www.w3.org/1999/02/22-rdf-syntax-ns#">
      <rdf:Description rdf:about=""/>
   </rdf:RDF>
</x:xmpmeta>
                                                                                                    
                                                                                                    
                                                                                                    
                                                                                                    
                                                                                                    
                                                                                                    
                                                                                                    
                                                                                                    
                                                                                                    
                                                                                                    
                                                                                                    
                                                                                                    
                                                                                                    
                                                                                                    
                                                                                                    
                                                                                                    
                                                                                                    
                                                                                                    
                                                                                                    
                                                                                                    
                           
<?xpacket end="w"?></metadata>
<defs>
    <style>
      .cls-1 {
        fill: #1bcac6;
        fill-rule: evenodd;
      }
    </style>
  </defs>
  <path id="Forma_1" data-name="Forma 1" class="cls-1" d="M466.183,853.064a0.806,0.806,0,0,0-1.058.409l-1.628,3.848a0.815,0.815,0,0,0,.407,1.064,0.488,0.488,0,0,0,.326.082,0.712,0.712,0,0,0,.732-0.491l1.628-3.848A0.815,0.815,0,0,0,466.183,853.064Zm4.964,5.239a0.806,0.806,0,0,0-1.058-.409l-3.744,1.8a0.814,0.814,0,0,0-.406,1.064,0.781,0.781,0,0,0,.732.491,0.485,0.485,0,0,0,.325-0.082l3.744-1.8A0.814,0.814,0,0,0,471.147,858.3Zm14.809,55.013a0.7,0.7,0,0,0-.9-0.573l-4.557,1.064-4.068-16.618c1.953-.9,3.336-3.275,3.906-6.713a33.363,33.363,0,0,0-.733-13.1c-0.732-2.866-2.766-9.988-4.068-12.608a0.817,0.817,0,0,0-.895-0.409l-13.264,3.275a0.8,0.8,0,0,0-.651.818c0.081,2.947,1.546,10.233,2.2,13.1,2.278,9.414,7.242,16.127,11.718,16.127h0.244l4.068,16.618-4.638,1.065a0.777,0.777,0,0,0-.57.982,0.794,0.794,0,0,0,.814.655h0.163l10.66-2.7A0.777,0.777,0,0,0,485.956,913.316Zm-23.6-44.289,11.962-2.947c0.488,1.146,1.058,2.784,1.628,4.585l-12.939,3.029A45.162,45.162,0,0,1,462.358,869.027Zm2.2,12.116c-0.325-1.31-.814-3.52-1.22-5.812l13.1-3.111c0.651,2.21,1.22,4.339,1.546,5.567a31.262,31.262,0,0,1,.732,12.361c-0.569,3.193-1.871,5.322-3.5,5.731C472.042,896.7,466.915,890.967,464.555,881.143Zm11.067-4.5a0.8,0.8,0,1,0-1.546.409c1.627,6.549,1.3,12.034.651,13.671a0.815,0.815,0,0,0,.407,1.065,0.485,0.485,0,0,0,.325.082,0.825,0.825,0,0,0,.733-0.492C477.005,889.493,477.331,883.6,475.622,876.641Zm-15.949-19.975-13.264-3.275a0.769,0.769,0,0,0-.895.41c-1.3,2.7-3.336,9.741-4.069,12.607a33.313,33.313,0,0,0-.732,13.1c0.651,3.52,2.034,5.812,3.906,6.713l-4.069,16.618-4.557-1.146a0.8,0.8,0,0,0-.407,1.556l10.742,2.783h0.162a0.857,0.857,0,0,0,.814-0.655,0.843,0.843,0,0,0-.57-0.982l-4.556-1.146,4.068-16.619h0.244c2.035,0,4.313-1.473,6.347-4.175a32.956,32.956,0,0,0,5.29-11.952,89.939,89.939,0,0,0,2.2-13.1A0.945,0.945,0,0,0,459.673,856.666ZM456.5,870.255a31.372,31.372,0,0,1-4.964,11.3c-1.952,2.619-4.068,3.847-5.7,3.438s-2.929-2.456-3.5-5.731a31.2,31.2,0,0,1,.733-12.361c0.325-1.31.9-3.438,1.546-5.567l13.1,3.111C457.313,866.735,456.825,868.945,456.5,870.255Zm1.546-7.449L445.107,859.7c0.57-1.719,1.139-3.439,1.627-4.585l11.962,2.948C458.534,859.367,458.29,861.005,458.045,862.806ZM446.409,865.1a0.836,0.836,0,0,0-.976.573c-1.709,6.958-1.384,12.771-.57,14.735a0.782,0.782,0,0,0,.732.492,0.488,0.488,0,0,0,.326-0.082,0.752,0.752,0,0,0,.407-1.064c-0.651-1.638-.977-7.2.651-13.672A0.813,0.813,0,0,0,446.409,865.1Z" transform="translate(-435.031 -853)"/>
</svg>
