<svg xmlns="http://www.w3.org/2000/svg" width="91" height="70" viewBox="0 0 91 70">
  <metadata><?xpacket begin="﻿" id="W5M0MpCehiHzreSzNTczkc9d"?>
<x:xmpmeta xmlns:x="adobe:ns:meta/" x:xmptk="Adobe XMP Core 5.6-c138 79.159824, 2016/09/14-01:09:01        ">
   <rdf:RDF xmlns:rdf="http://www.w3.org/1999/02/22-rdf-syntax-ns#">
      <rdf:Description rdf:about=""/>
   </rdf:RDF>
</x:xmpmeta>
                                                                                                    
                                                                                                    
                                                                                                    
                                                                                                    
                                                                                                    
                                                                                                    
                                                                                                    
                                                                                                    
                                                                                                    
                                                                                                    
                                                                                                    
                                                                                                    
                                                                                                    
                                                                                                    
                                                                                                    
                                                                                                    
                                                                                                    
                                                                                                    
                                                                                                    
                                                                                                    
                           
<?xpacket end="w"?></metadata>
<defs>
    <style>
      .cls-1 {
        fill: #1bcac6;
        fill-rule: evenodd;
      }
    </style>
  </defs>
  <path class="cls-1" d="M1434.75,909.957h-21.23a1.522,1.522,0,0,0,0,3.043h21.23A1.522,1.522,0,0,0,1434.75,909.957Zm-4.55-3.047a18.275,18.275,0,0,0,12.56-31.479,1.521,1.521,0,0,0-2.1,2.2,15.157,15.157,0,1,1-10.46-4.2,1.522,1.522,0,0,0,0-3.043A18.26,18.26,0,0,0,1430.2,906.91Zm7.58-42.607h0.77l-8.76,21.344a3.038,3.038,0,1,0,2.81,1.159l8.55-20.851,9.6,13.983a1.519,1.519,0,1,0,2.5-1.726L1443.7,864.3h3.18a4.565,4.565,0,0,0,0-9.13h-9.1a1.511,1.511,0,0,0-1.51,1.521v6.087A1.513,1.513,0,0,0,1437.78,864.3Zm1.52-6.087h7.58a1.522,1.522,0,0,1,0,3.043h-7.58v-3.043Zm43.98,13.695a1.521,1.521,0,0,0,1.52,1.522,15.193,15.193,0,1,1-9.64,3.469,1.519,1.519,0,0,0-1.93-2.347,18.188,18.188,0,1,0,11.57-4.165A1.52,1.52,0,0,0,1483.28,871.911Zm-24.26,38.046h-15.17a1.522,1.522,0,0,0,0,3.043h15.17A1.522,1.522,0,0,0,1459.02,909.957Zm0-28.7v-4.781a1.522,1.522,0,0,0,0-3.043h-3.04a1.522,1.522,0,0,0,0,3.043v4.781a6.063,6.063,0,0,0,0,11.742v4.781a1.522,1.522,0,0,0,0,3.043h3.04a1.522,1.522,0,0,0,0-3.043V893A6.063,6.063,0,0,0,1459.02,881.257Zm-1.52,8.914a3.043,3.043,0,1,1,3.03-3.043A3.04,3.04,0,0,1,1457.5,890.171Zm24.96-3.438a3.024,3.024,0,1,0,2.84-1.076l-6.84-18.311h10.82a3.136,3.136,0,0,0,3.07-2.745l1.52-7.608a1.546,1.546,0,0,0-.31-1.263,1.519,1.519,0,0,0-1.18-.557h-13.65a1.522,1.522,0,0,0,0,3.043h11.8l-1.16,5.822a1.205,1.205,0,0,1-.09.265h-11.96l-4.75-12.708c0-.006-0.01-0.009-0.01-0.015v-0.017l-3.03-7.608a1.519,1.519,0,1,0-2.82,1.13l2.76,6.925-5.7,10.016a1.517,1.517,0,0,0,.56,2.076,1.535,1.535,0,0,0,.75.2,1.515,1.515,0,0,0,1.32-.767l4.46-7.839,3.65,9.765-11.55,13.045a1.519,1.519,0,0,0,1.13,2.534,1.5,1.5,0,0,0,1.13-.511l10.5-11.847Zm19.02,23.224h-24.26a1.522,1.522,0,0,0,0,3.043h24.26A1.522,1.522,0,0,0,1501.48,909.957Zm-30.33,0h-3.03a1.522,1.522,0,0,0,0,3.043h3.03A1.522,1.522,0,0,0,1471.15,909.957Z" transform="translate(-1412 -843)"/>
</svg>
