<svg xmlns="http://www.w3.org/2000/svg" width="56" height="56" viewBox="0 0 56 56">
  <metadata><?xpacket begin="﻿" id="W5M0MpCehiHzreSzNTczkc9d"?>
<x:xmpmeta xmlns:x="adobe:ns:meta/" x:xmptk="Adobe XMP Core 5.6-c138 79.159824, 2016/09/14-01:09:01        ">
   <rdf:RDF xmlns:rdf="http://www.w3.org/1999/02/22-rdf-syntax-ns#">
      <rdf:Description rdf:about=""/>
   </rdf:RDF>
</x:xmpmeta>
                                                                                                    
                                                                                                    
                                                                                                    
                                                                                                    
                                                                                                    
                                                                                                    
                                                                                                    
                                                                                                    
                                                                                                    
                                                                                                    
                                                                                                    
                                                                                                    
                                                                                                    
                                                                                                    
                                                                                                    
                                                                                                    
                                                                                                    
                                                                                                    
                                                                                                    
                                                                                                    
                           
<?xpacket end="w"?></metadata>
<defs>
    <style>
      .cls-1 {
        fill: #1bcac6;
        fill-rule: evenodd;
      }
    </style>
  </defs>
  <path id="Forma_1" data-name="Forma 1" class="cls-1" d="M462.419,1070.45a0.9,0.9,0,0,0,0-1.79h-0.074v-3.83a2.371,2.371,0,0,0-2.37-2.37H433.337a2.37,2.37,0,0,0-2.369,2.37v3.83h-0.074a0.9,0.9,0,0,0,0,1.79h2.2v2.14l-1.1.62a4.512,4.512,0,0,0-2,3.63v28.32a3.844,3.844,0,0,0,3.844,3.84h25.624a3.845,3.845,0,0,0,3.845-3.84v-28.32a4.513,4.513,0,0,0-2-3.63l-1.1-.62v-2.14h2.2Zm-0.893,34.71a2.056,2.056,0,0,1-2.058,2.05H433.844a2.056,2.056,0,0,1-2.057-2.05v-2.06h29.739v2.06Zm0-3.85H431.787v-17.3h29.739v17.3Zm-1.1-26.55a2.732,2.732,0,0,1,1.1,2.08v5.39H431.787v-5.39a2.732,2.732,0,0,1,1.1-2.08l1.546-.88a0.9,0.9,0,0,0,.449-0.78v-2.65h23.555v2.65a0.9,0.9,0,0,0,.449.78Zm-27.674-6.1v-3.83a0.585,0.585,0,0,1,.582-0.58h3.549v1.73a0.894,0.894,0,1,0,1.787,0v-1.73H442.8v1.73a0.894,0.894,0,1,0,1.787,0v-1.73h4.131v1.73a0.894,0.894,0,1,0,1.787,0v-1.73h4.13v1.73a0.894,0.894,0,1,0,1.788,0v-1.73h3.548a0.585,0.585,0,0,1,.582.58v3.83h-27.8Zm8.555,29.42H452a5.42,5.42,0,0,0,0-10.84H441.31A5.42,5.42,0,0,0,441.31,1098.08Zm6.24-9.05H452a3.63,3.63,0,1,1,0,7.26H447.55v-7.26Zm-6.24,0h4.453v7.26H441.31A3.63,3.63,0,1,1,441.31,1089.03Zm14.443-16.82H444.709a0.9,0.9,0,0,0,0,1.79h11.044A0.9,0.9,0,0,0,455.753,1072.21Zm-14.619,0H437.56a0.9,0.9,0,0,0,0,1.79h3.574A0.9,0.9,0,0,0,441.134,1072.21Zm25.333,32.32a0.894,0.894,0,1,0,1.787,0v-7.15a0.894,0.894,0,0,0-1.787,0v7.15Zm0.894-9.83a0.893,0.893,0,0,0,.893-0.89v-36.34a0.894,0.894,0,1,0-1.787,0v36.34A0.893,0.893,0,0,0,467.361,1094.7Zm11.907-41.7H455.453a6.739,6.739,0,0,0-6.731,6.73,0.894,0.894,0,1,0,1.787,0,4.95,4.95,0,0,1,4.944-4.94h23.815a4.951,4.951,0,0,1,4.945,4.94v42.54a4.951,4.951,0,0,1-4.945,4.94H465.3a0.9,0.9,0,0,0,0,1.79h13.968a6.739,6.739,0,0,0,6.732-6.73v-42.54A6.739,6.739,0,0,0,479.268,1053Zm-3.034,14.02a4.365,4.365,0,1,0-4.363-4.37A4.371,4.371,0,0,0,476.234,1067.02Zm0-6.94a2.575,2.575,0,1,1-2.576,2.57A2.574,2.574,0,0,1,476.234,1060.08Zm0,19.17a4.365,4.365,0,1,0-4.363-4.37A4.371,4.371,0,0,0,476.234,1079.25Zm0-6.94a2.575,2.575,0,1,1-2.576,2.57A2.574,2.574,0,0,1,476.234,1072.31Zm0,19.17a4.365,4.365,0,1,0-4.363-4.36A4.369,4.369,0,0,0,476.234,1091.48Zm0-6.94a2.575,2.575,0,1,1-2.576,2.58A2.576,2.576,0,0,1,476.234,1084.54Zm0,19.17a4.365,4.365,0,1,0-4.363-4.36A4.369,4.369,0,0,0,476.234,1103.71Zm0-6.94a2.575,2.575,0,1,1-2.576,2.58A2.583,2.583,0,0,1,476.234,1096.77Zm-19.185-36.25a2.565,2.565,0,0,1,2.9.02,0.94,0.94,0,0,0,.508.15,0.888,0.888,0,0,0,.509-1.62,4.337,4.337,0,0,0-4.919-.03A0.893,0.893,0,0,0,457.049,1060.52Z" transform="translate(-430 -1053)"/>
</svg>
