<svg xmlns="http://www.w3.org/2000/svg" width="43" height="74" viewBox="0 0 43 74">
  <metadata><?xpacket begin="﻿" id="W5M0MpCehiHzreSzNTczkc9d"?>
<x:xmpmeta xmlns:x="adobe:ns:meta/" x:xmptk="Adobe XMP Core 5.6-c138 79.159824, 2016/09/14-01:09:01        ">
   <rdf:RDF xmlns:rdf="http://www.w3.org/1999/02/22-rdf-syntax-ns#">
      <rdf:Description rdf:about=""/>
   </rdf:RDF>
</x:xmpmeta>
                                                                                                    
                                                                                                    
                                                                                                    
                                                                                                    
                                                                                                    
                                                                                                    
                                                                                                    
                                                                                                    
                                                                                                    
                                                                                                    
                                                                                                    
                                                                                                    
                                                                                                    
                                                                                                    
                                                                                                    
                                                                                                    
                                                                                                    
                                                                                                    
                                                                                                    
                                                                                                    
                           
<?xpacket end="w"?></metadata>
<defs>
    <style>
      .cls-1 {
        fill: #1bcac6;
        fill-rule: evenodd;
      }
    </style>
  </defs>
  <path id="Forma_1" data-name="Forma 1" class="cls-1" d="M457.373,1280.05a9.821,9.821,0,0,0-1.553-17.16,6.913,6.913,0,0,0,2.15-3.58,5.764,5.764,0,0,0-.956-4.64,5.9,5.9,0,0,0-3.582-2.51,2.19,2.19,0,0,0,.239-0.95,1.987,1.987,0,0,0-.6-1.43v-3.93a6.148,6.148,0,0,0,2.746-1.43c1.672-1.55,2.627-4.17,2.627-7.75v-0.47a6.21,6.21,0,1,0-12.419.12c0,0.11,0,.23-0.6.23a1.2,1.2,0,0,0,.239,2.39,3.655,3.655,0,0,0,2.269-.96,2.742,2.742,0,0,0,.6-1.78,3.846,3.846,0,0,1,3.821-3.82,3.77,3.77,0,0,1,3.821,3.82v0.47c0,2.74-.6,4.77-1.791,5.96a3.526,3.526,0,0,1-2.269.95,1.352,1.352,0,0,0-.955.36,1.3,1.3,0,0,0-.358.84v5a1.708,1.708,0,0,0-.717,1.43,2.736,2.736,0,0,0,.239.95,3.871,3.871,0,0,0-2.03.84,5.862,5.862,0,0,0-2.627,3.93,5.783,5.783,0,0,0,.955,4.65,6.5,6.5,0,0,0,1.195,1.31,9.565,9.565,0,0,0-1.433.83,9.946,9.946,0,0,0-2.747,13.71,9.271,9.271,0,0,0,6.568,4.17c-1.672,3.33-5.732,12.03-5.732,15.01a7.4,7.4,0,0,0,14.807,0c0-3.1-4.06-11.68-5.732-15.01A9.693,9.693,0,0,0,457.373,1280.05Zm-9.315-22.64a4.116,4.116,0,0,1,1.672-2.51,3.622,3.622,0,0,1,2.15-.71,1.508,1.508,0,0,1,.716.12,4.1,4.1,0,0,1,2.508,1.67,3.526,3.526,0,0,1,.6,2.86,4.122,4.122,0,0,1-1.672,2.5,3.871,3.871,0,0,1-5.373-1.07A3.541,3.541,0,0,1,448.058,1257.41Zm-2.388,18.71a7.618,7.618,0,0,1,2.03-10.49,7.88,7.88,0,0,1,4.18-1.31,5.779,5.779,0,0,1,1.432.12,7.13,7.13,0,0,1,4.777,3.22,7.586,7.586,0,0,1-2.03,10.48,7.846,7.846,0,0,1-5.612,1.19A7.119,7.119,0,0,1,445.67,1276.12Zm11.225,20.61a5.016,5.016,0,0,1-10.031,0c0-2.02,2.747-8.34,5.016-12.99C454.029,1288.39,456.9,1294.71,456.9,1296.73Zm27.942-23a10.032,10.032,0,0,0-1.552-7.39,9.789,9.789,0,0,0-4.18-3.45,6.218,6.218,0,0,0,1.075-8.22,5.9,5.9,0,0,0-3.582-2.51,2.19,2.19,0,0,0,.239-0.95,1.708,1.708,0,0,0-.717-1.43v-3.93a5.306,5.306,0,0,0,2.627-1.43c1.672-1.55,2.508-4.17,2.508-7.75v-0.47a6.227,6.227,0,0,0-1.911-4.41,6.168,6.168,0,0,0-10.508,4.64c0,0.12,0,.24-0.6.24a1.2,1.2,0,0,0,.239,2.39,3.116,3.116,0,0,0,2.269-1.08,2.742,2.742,0,0,0,.6-1.78,3.77,3.77,0,0,1,3.821-3.82,3.351,3.351,0,0,1,2.746,1.08,3.849,3.849,0,0,1,1.194,2.74v0.47c0,2.74-.6,4.77-1.671,5.96a3.551,3.551,0,0,1-2.15.95,1.583,1.583,0,0,0-.955.36,1.3,1.3,0,0,0-.358.84l0.119,5a2.093,2.093,0,0,0-.716,1.43,2.734,2.734,0,0,0,.238.95,13.228,13.228,0,0,0-1.91.84,6.247,6.247,0,0,0-2.627,4.05,5.783,5.783,0,0,0,.955,4.65,5.881,5.881,0,0,0,1.194,1.19,9.666,9.666,0,0,0-1.433.83,10.158,10.158,0,0,0-4.06,6.32,10.037,10.037,0,0,0,1.553,7.39,9.521,9.521,0,0,0,6.448,4.05c-1.672,3.33-5.732,12.03-5.732,15.01a7.4,7.4,0,0,0,14.807,0c0-3.1-4.06-11.68-5.732-15.01a9.511,9.511,0,0,0,3.941-1.55A10.257,10.257,0,0,0,484.837,1273.73Zm-13.732-16.32a3.959,3.959,0,0,1,1.552-2.51,3.622,3.622,0,0,1,2.15-.71,1.508,1.508,0,0,1,.716.12,3.809,3.809,0,0,1,1.552,6.91,3.565,3.565,0,0,1-2.149.72,1.5,1.5,0,0,1-.716-0.12,3.986,3.986,0,0,1-2.508-1.55A3.938,3.938,0,0,1,471.105,1257.41Zm9.075,39.32a5.016,5.016,0,0,1-10.031,0c0-2.02,2.747-8.34,5.016-12.99C477.434,1288.39,480.18,1294.71,480.18,1296.73Zm-0.836-18.71a7.514,7.514,0,0,1-10.508-1.9,7.272,7.272,0,0,1-1.194-5.6,7.464,7.464,0,0,1,3.105-4.89,7.954,7.954,0,0,1,4.3-1.31,4.458,4.458,0,0,1,1.314.12,7.494,7.494,0,0,1,4.9,3.1,7.254,7.254,0,0,1,1.194,5.6A6.81,6.81,0,0,1,479.344,1278.02Z" transform="translate(-442 -1230)"/>
</svg>
