<svg xmlns="http://www.w3.org/2000/svg" width="61" height="57" viewBox="0 0 61 57">
  <metadata><?xpacket begin="﻿" id="W5M0MpCehiHzreSzNTczkc9d"?>
<x:xmpmeta xmlns:x="adobe:ns:meta/" x:xmptk="Adobe XMP Core 5.6-c138 79.159824, 2016/09/14-01:09:01        ">
   <rdf:RDF xmlns:rdf="http://www.w3.org/1999/02/22-rdf-syntax-ns#">
      <rdf:Description rdf:about=""/>
   </rdf:RDF>
</x:xmpmeta>
                                                                                                    
                                                                                                    
                                                                                                    
                                                                                                    
                                                                                                    
                                                                                                    
                                                                                                    
                                                                                                    
                                                                                                    
                                                                                                    
                                                                                                    
                                                                                                    
                                                                                                    
                                                                                                    
                                                                                                    
                                                                                                    
                                                                                                    
                                                                                                    
                                                                                                    
                                                                                                    
                           
<?xpacket end="w"?></metadata>
<defs>
    <style>
      .cls-1 {
        fill: #1bcac6;
        fill-rule: evenodd;
      }
    </style>
  </defs>
  <path class="cls-1" d="M1282.95,878.482V856.089a5.091,5.091,0,0,0-5.08-5.089h-44.74a5.091,5.091,0,0,0-5.08,5.089v15.268a3.057,3.057,0,0,0-3.05,3.054v30.535a3.057,3.057,0,0,0,3.05,3.054h22.37a3.057,3.057,0,0,0,3.05-3.054h8.52a3.013,3.013,0,0,0,2.42-1.2,3.045,3.045,0,0,0,.52-2.656l-2-7.34h5.79v11.2a3.05,3.05,0,0,0,3.05,3.054h11.18a3.057,3.057,0,0,0,3.05-3.054v-23.41A3.057,3.057,0,0,0,1282.95,878.482Zm-31.52,26.464a1.013,1.013,0,0,1-1.01,1.018h-22.37a1.022,1.022,0,0,1-1.02-1.018v-2.035h24.4v2.035Zm0-4.071h-24.4V878.482h24.4v22.393Zm0-24.429h-24.4v-2.035a1.022,1.022,0,0,1,1.02-1.018h22.37a1.013,1.013,0,0,1,1.01,1.018v2.035Zm11.54,25.179a1.037,1.037,0,0,1-.17.886,1.021,1.021,0,0,1-.81.4h-8.52v-2.036h9.29Zm-9.5-2.786V893.75h7.35l1.39,5.089h-8.74Zm15.25-7.125h-15.25v-6.107h15.25v6.107Zm0-10.178v2.035h-15.25v-9.16a3.057,3.057,0,0,0-3.05-3.054h-20.34V856.089a3.056,3.056,0,0,1,3.05-3.053h44.74a3.056,3.056,0,0,1,3.05,3.053v22.393h-9.15A3.05,3.05,0,0,0,1268.72,881.536Zm15.25,23.41a1.022,1.022,0,0,1-1.02,1.018h-11.18a1.022,1.022,0,0,1-1.02-1.018v-2.035h13.22v2.035Zm0-4.071h-13.22V885.607h13.22v15.268Zm0-17.3h-13.22v-2.035a1.022,1.022,0,0,1,1.02-1.018h11.18a1.022,1.022,0,0,1,1.02,1.018v2.035Zm-51.85-28.5h2.03v2.036h-2.03v-2.036Zm4.06,0h2.04v2.036h-2.04v-2.036Zm4.07,0h2.03v2.036h-2.03v-2.036Z" transform="translate(-1225 -851)"/>
</svg>
