<svg xmlns="http://www.w3.org/2000/svg" width="60" height="67" viewBox="0 0 60 67">
  <metadata><?xpacket begin="﻿" id="W5M0MpCehiHzreSzNTczkc9d"?>
<x:xmpmeta xmlns:x="adobe:ns:meta/" x:xmptk="Adobe XMP Core 5.6-c138 79.159824, 2016/09/14-01:09:01        ">
   <rdf:RDF xmlns:rdf="http://www.w3.org/1999/02/22-rdf-syntax-ns#">
      <rdf:Description rdf:about=""/>
   </rdf:RDF>
</x:xmpmeta>
                                                                                                    
                                                                                                    
                                                                                                    
                                                                                                    
                                                                                                    
                                                                                                    
                                                                                                    
                                                                                                    
                                                                                                    
                                                                                                    
                                                                                                    
                                                                                                    
                                                                                                    
                                                                                                    
                                                                                                    
                                                                                                    
                                                                                                    
                                                                                                    
                                                                                                    
                                                                                                    
                           
<?xpacket end="w"?></metadata>
<defs>
    <style>
      .cls-1 {
        fill: #1bcac6;
        fill-rule: evenodd;
      }
    </style>
  </defs>
  <path id="Forma_1" data-name="Forma 1" class="cls-1" d="M1063.09,862.707a51.614,51.614,0,0,0,20.5,0,16.149,16.149,0,0,0,2.52-.8v2.581c-0.24.256-1.25,0.879-3.83,1.416a45.526,45.526,0,0,1-8.94.8,38.872,38.872,0,0,1-10.9-1.308,1.3,1.3,0,0,0-.81,2.48,40.919,40.919,0,0,0,11.71,1.435,45.8,45.8,0,0,0,10.25-1.028c0.35-.083.67-0.17,0.98-0.26l-1.57,9.489a1.3,1.3,0,0,0,1.07,1.5,1.36,1.36,0,0,0,.22.018,1.307,1.307,0,0,0,1.28-1.09l1.85-11.166a2.621,2.621,0,0,0,1.29-2.152v-5.574c0-1.635-1.67-2.833-5.12-3.662a51.614,51.614,0,0,0-20.5,0c-3.44.829-5.12,2.027-5.12,3.662S1059.65,861.878,1063.09,862.707Zm1.31-4.946a50.476,50.476,0,0,1,17.88,0,10.231,10.231,0,0,1,3.68,1.285,10.239,10.239,0,0,1-3.68,1.284,50.414,50.414,0,0,1-17.88,0,10.151,10.151,0,0,1-3.67-1.284A10.143,10.143,0,0,1,1064.4,857.761Zm18.71,23.609c-0.1-.036-0.18-0.068-0.25-0.1a1.582,1.582,0,0,0-2.11.5,2.028,2.028,0,0,1-.19.241c-0.61.641-2.49,1.29-4.93,1.29-3.09,0-4.82-.994-5.01-1.408a1.531,1.531,0,0,1,.55-0.468,1.3,1.3,0,0,0-.58-2.422c-1.48-.1-3-0.146-4.53-0.146-11.4,0-22.93,2.776-22.93,8.082v17.969c0,5.307,11.53,8.083,22.93,8.083s22.94-2.776,22.94-8.083V886.948C1089,884.033,1085.31,882.2,1083.11,881.37Zm3.29,23.547c0,0.854-1.42,2.3-5.43,3.55a58.675,58.675,0,0,1-29.82,0c-4-1.254-5.42-2.7-5.42-3.55V890.9c4.04,2.721,12.22,4.127,20.33,4.127s16.29-1.406,20.34-4.127v14.013h0Zm-34.79-14.28a7.77,7.77,0,0,1,4.05-.9c2.49,0,3.98.741,4.3,1.116a4.759,4.759,0,0,1-2.61.994A40.55,40.55,0,0,1,1051.61,890.637Zm33.19-1.8a1.3,1.3,0,0,0-1.3-1.221h-0.32a1.3,1.3,0,0,0-.74,2.375c-0.45.172-.93,0.342-1.47,0.508a52,52,0,0,1-14.91,1.926c-1.34,0-2.66-.038-3.94-0.113a2.512,2.512,0,0,0,.48-1.46c0-2.445-3.49-3.724-6.94-3.724-2.87,0-5.76.881-6.66,2.579-2.38-1.031-3.27-2.08-3.27-2.758,0-.619.75-1.548,2.69-2.491a1.3,1.3,0,0,0,1.29,1.157h0.33a1.306,1.306,0,0,0,1.3-1.3,1.327,1.327,0,0,0-.33-0.867c0.05-.015.09-0.03,0.14-0.046a52.046,52.046,0,0,1,14.91-1.926q0.99,0,1.98.029a3.058,3.058,0,0,0-.03.4c0,2.637,3.83,4.016,7.62,4.016,2.93,0,5.5-.777,6.75-2.035,2.34,0.918,4.02,2.193,4.02,3.067C1086.4,887.435,1085.94,888.111,1084.8,888.836Zm-21.23-4.765a1.3,1.3,0,0,1-1.3,1.3h-0.33a1.3,1.3,0,0,1,0-2.606h0.33A1.3,1.3,0,0,1,1063.57,884.071Zm7.31,5.208a1.3,1.3,0,0,1-1.3,1.3h-0.33a1.3,1.3,0,0,1,0-2.606h0.33A1.3,1.3,0,0,1,1070.88,889.279Zm-20.63-12.99v-5.416a14.135,14.135,0,0,0-.99-5.565,1.3,1.3,0,1,1,2.41-.966,16.609,16.609,0,0,1,1.18,6.531v5.416A1.3,1.3,0,1,1,1050.25,876.289Zm-10.6,29.953a5.176,5.176,0,0,1-5.31-5.021V870.413c0-3.784.92-5.613,2.44-8.644,0.08-.167.17-0.338,0.26-0.513h15.87c0.08,0.176.17,0.347,0.25,0.513,1.52,3.031,2.44,4.861,2.44,8.644v4.65a1.305,1.305,0,0,0,2.61,0v-4.65c0-4.4-1.14-6.673-2.72-9.815-0.2-.385-0.4-0.783-0.6-1.2a0.081,0.081,0,0,1-.02-0.042c-0.61-1.234-1.27-2.64-1.98-4.394v-0.384a3.632,3.632,0,0,0,.94-2.432v-2.508A3.639,3.639,0,0,0,1050.2,846h-10.46a3.639,3.639,0,0,0-3.63,3.637v2.043l-3.42-1.412a1.3,1.3,0,0,0-.99,2.411l3.8,1.568-5.88,3.667a1.3,1.3,0,1,0,1.37,2.213l5.26-3.275c-0.41.926-.8,1.747-1.18,2.5a0.076,0.076,0,0,1-.02.04c-0.2.418-.4,0.816-0.6,1.2-1.57,3.142-2.71,5.413-2.71,9.815v30.808a7.782,7.782,0,0,0,7.91,7.627A1.3,1.3,0,0,0,1039.65,906.242Zm-0.93-56.605a1.029,1.029,0,0,1,1.02-1.031h10.46a1.037,1.037,0,0,1,1.03,1.031v2.508a1.027,1.027,0,0,1-.38.793,0.755,0.755,0,0,1-.08.06,1,1,0,0,1-.57.178h-10.46a1.036,1.036,0,0,1-.57-0.175,0.743,0.743,0,0,1-.08-0.065,1.017,1.017,0,0,1-.37-0.791v-2.508Zm0.8,6.138c0.08,0,.15.007,0.22,0.007h10.46c0.07,0,.14,0,0.22-0.007,0.42,1.064.83,2.015,1.23,2.874h-13.36C1038.69,857.79,1039.1,856.839,1039.52,855.775Z" transform="translate(-1029 -846)"/>
</svg>
