<svg xmlns="http://www.w3.org/2000/svg" width="60" height="60" viewBox="0 0 60 60">
  <metadata><?xpacket begin="﻿" id="W5M0MpCehiHzreSzNTczkc9d"?>
<x:xmpmeta xmlns:x="adobe:ns:meta/" x:xmptk="Adobe XMP Core 5.6-c138 79.159824, 2016/09/14-01:09:01        ">
   <rdf:RDF xmlns:rdf="http://www.w3.org/1999/02/22-rdf-syntax-ns#">
      <rdf:Description rdf:about=""/>
   </rdf:RDF>
</x:xmpmeta>
                                                                                                    
                                                                                                    
                                                                                                    
                                                                                                    
                                                                                                    
                                                                                                    
                                                                                                    
                                                                                                    
                                                                                                    
                                                                                                    
                                                                                                    
                                                                                                    
                                                                                                    
                                                                                                    
                                                                                                    
                                                                                                    
                                                                                                    
                                                                                                    
                                                                                                    
                                                                                                    
                           
<?xpacket end="w"?></metadata>
<defs>
    <style>
      .cls-1 {
        fill: #1bcac6;
        fill-rule: evenodd;
      }
    </style>
  </defs>
  <path class="cls-1" d="M483.905,702.72H471.094a19.111,19.111,0,0,0,7.662-5.323c7.765-1.161,11.244-7.485,11.244-13.306,0-4.132-2.336-7.582-5.36-8.186,0-.031,0-0.062,0-0.093a2.026,2.026,0,0,0-.631-1.449,2.088,2.088,0,0,0-1.471-.621H434.2a2.09,2.09,0,0,0-1.471.621,2.03,2.03,0,0,0-.631,1.449c0.082,11.13,2.05,22.385,13.548,26.908H432.732A2.693,2.693,0,0,0,430,705.411a2.556,2.556,0,0,0,2.312,2.484l13.345,0.931a0.789,0.789,0,0,1,.735.518A3.035,3.035,0,0,0,449.124,711h17.443a2.772,2.772,0,0,0,2.627-1.656,0.79,0.79,0,0,1,.736-0.518l14.29-.931h0.106a2.555,2.555,0,0,0,2.311-2.484A2.693,2.693,0,0,0,483.905,702.72Zm0.736-24.632c1.786,0.622,3.152,3.105,3.152,6,0,4.033-1.888,8.893-7.133,10.656q0.132-.22.258-0.445C483.837,689.316,484.437,683.313,484.641,678.088ZM434.2,675.812h48.336c-0.1,13.971-3.152,26.908-24.168,26.908S434.308,689.783,434.2,675.812Zm49.913,30.013-14.081.931a3.28,3.28,0,0,0-2.522,1.656,1.072,1.072,0,0,1-.841.518H449.124a1.072,1.072,0,0,1-.84-0.518,3.282,3.282,0,0,0-2.522-1.656l-13.135-.931c-0.525-.1-0.525-0.311-0.525-0.414a0.672,0.672,0,0,1,.63-0.621H484.01a0.672,0.672,0,0,1,.631.621C484.641,705.514,484.641,705.721,484.116,705.825Zm-26.48-46.262a6.772,6.772,0,0,0-2.417,4.761,7.383,7.383,0,0,0,2.417,4.967,1.025,1.025,0,0,0,1.471,0,0.99,0.99,0,0,0,0-1.448,5.4,5.4,0,0,1-1.787-3.519,4.592,4.592,0,0,1,1.787-3.312,6.588,6.588,0,0,0,2.417-4.76,6.781,6.781,0,0,0-2.417-4.968,1.026,1.026,0,0,0-1.471,0,0.989,0.989,0,0,0,0,1.449,5.4,5.4,0,0,1,1.786,3.519A4.594,4.594,0,0,1,457.636,659.563Zm9.141,4.761a7.383,7.383,0,0,0,2.417,4.967,0.962,0.962,0,0,0,.736.311,0.752,0.752,0,0,0,.63-0.311,0.988,0.988,0,0,0,0-1.448,5.394,5.394,0,0,1-1.786-3.519,4.59,4.59,0,0,1,1.786-3.312,6.369,6.369,0,0,0,2.522-4.761,6.613,6.613,0,0,0-2.417-4.967,1.025,1.025,0,0,0-1.471,0,0.99,0.99,0,0,0,0,1.448,5.4,5.4,0,0,1,1.787,3.52,4.778,4.778,0,0,1-1.787,3.311A6.772,6.772,0,0,0,466.777,664.324Zm-22.066,0a7.383,7.383,0,0,0,2.417,4.967,0.96,0.96,0,0,0,.735.311,0.753,0.753,0,0,0,.631-0.311,0.99,0.99,0,0,0,0-1.448,5.4,5.4,0,0,1-1.787-3.519,4.592,4.592,0,0,1,1.787-3.312,6.372,6.372,0,0,0,2.522-4.761,6.617,6.617,0,0,0-2.417-4.967,1.025,1.025,0,0,0-1.471,0,0.988,0.988,0,0,0,0,1.448,5.394,5.394,0,0,1,1.786,3.52,4.776,4.776,0,0,1-1.786,3.311A6.772,6.772,0,0,0,444.711,664.324Zm7.566,33.221c-7.461-1.241-11.244-5.381-12.82-13.661a1.153,1.153,0,0,0-1.261-.828,1.136,1.136,0,0,0-.841,1.242c1.682,9.211,6.2,13.868,14.5,15.317h0.211a1.019,1.019,0,0,0,1.05-.828A1.075,1.075,0,0,0,452.277,697.545Z" transform="translate(-430 -651)"/>
</svg>
