<svg xmlns="http://www.w3.org/2000/svg" width="80" height="61" viewBox="0 0 80 61">
  <metadata><?xpacket begin="﻿" id="W5M0MpCehiHzreSzNTczkc9d"?>
<x:xmpmeta xmlns:x="adobe:ns:meta/" x:xmptk="Adobe XMP Core 5.6-c138 79.159824, 2016/09/14-01:09:01        ">
   <rdf:RDF xmlns:rdf="http://www.w3.org/1999/02/22-rdf-syntax-ns#">
      <rdf:Description rdf:about=""/>
   </rdf:RDF>
</x:xmpmeta>
                                                                                                    
                                                                                                    
                                                                                                    
                                                                                                    
                                                                                                    
                                                                                                    
                                                                                                    
                                                                                                    
                                                                                                    
                                                                                                    
                                                                                                    
                                                                                                    
                                                                                                    
                                                                                                    
                                                                                                    
                                                                                                    
                                                                                                    
                                                                                                    
                                                                                                    
                                                                                                    
                           
<?xpacket end="w"?></metadata>
<defs>
    <style>
      .cls-1 {
        fill: #1bcac6;
        fill-rule: evenodd;
      }
    </style>
  </defs>
  <path class="cls-1" d="M868.188,1068.09a16.283,16.283,0,0,0-4.076-2.49,5.721,5.721,0,0,0,1.82-4c0-3.68-4.239-6.85-10.645-8.05a8.224,8.224,0,0,0,.063-1.01,8.561,8.561,0,0,0-4.343-7.41,1.178,1.178,0,0,0-1.177,0,8.6,8.6,0,0,0-3.583,3.91,8.819,8.819,0,0,0-5.334-.27,1.157,1.157,0,0,0-.832.82,8.433,8.433,0,0,0,.194,5.02c-4.249,1.58-6.75,4.14-6.75,6.99a5.721,5.721,0,0,0,1.82,4c-4.364,1.94-6.83,4.69-6.83,7.71,0,2.43,1.606,4.65,4.366,6.4a29.291,29.291,0,0,0-7.632,3.09c-3.512,2.17-4.249,4.41-4.249,5.91,0,6.14,11.205,9.82,22.31,10.76h0.1a1.157,1.157,0,0,0,.1-2.31c-13.1-1.1-20.161-5.17-20.161-8.45,0-2.83,4.909-5.71,12.507-7.33l0.18-.06a35.142,35.142,0,0,0,11.186,2.32h0.068a1.156,1.156,0,0,0,.066-2.31,30.829,30.829,0,0,1-12.039-2.89c-2.872-1.49-4.453-3.31-4.453-5.13,0-2.26,2.454-4.51,6.587-6.07a27.359,27.359,0,0,0,24.557,0,15.585,15.585,0,0,1,4.632,2.59,1.2,1.2,0,0,0,1.727-.2A1.149,1.149,0,0,0,868.188,1068.09Zm-17.77-20.58a6.16,6.16,0,0,1,1.383,8.67,8.505,8.505,0,0,0-2.5-5.2,8.941,8.941,0,0,0-.987-0.83A6.272,6.272,0,0,1,850.418,1047.51Zm-8.211,3.35a6.452,6.452,0,0,1,5.437,1.75,6.211,6.211,0,0,1,1.783,5.35,6.42,6.42,0,0,1-5.436-1.75A6.215,6.215,0,0,1,842.207,1050.86Zm17.624,14.94a26.035,26.035,0,0,1-20.205,0c-2.385-1.18-3.753-2.71-3.753-4.2,0-1.86,2.078-3.71,5.474-4.92a8.623,8.623,0,0,0,.983,1.16,8.787,8.787,0,0,0,6.156,2.5,9.3,9.3,0,0,0,1.292-.09,3.682,3.682,0,0,0,1.23-.31,8.626,8.626,0,0,0,3.682-4.15c5.194,0.94,8.894,3.33,8.894,5.81C863.584,1063.09,862.216,1064.62,859.831,1065.8Zm40.506,19.74a21.558,21.558,0,0,0-9.478-2.08,20.769,20.769,0,0,0-2.108-9.32,1.2,1.2,0,0,0-1.146-.65,21.625,21.625,0,0,0-9.245,2.86,21.034,21.034,0,0,0-6.553-7.02,1.182,1.182,0,0,0-1.323,0,20.959,20.959,0,0,0-6.559,7.03,21.559,21.559,0,0,0-9.264-2.87,1.2,1.2,0,0,0-1.145.65,20.769,20.769,0,0,0-2.108,9.32,21.558,21.558,0,0,0-9.478,2.08,1.143,1.143,0,0,0-.662,1.12,20.843,20.843,0,0,0,10.551,16.54,21.506,21.506,0,0,0,19.315.96,21.5,21.5,0,0,0,19.314-.96A20.843,20.843,0,0,0,901,1086.66,1.143,1.143,0,0,0,900.337,1085.54Zm-13.365-9.67a18.49,18.49,0,0,1,1.537,7.75,21.319,21.319,0,0,0-7.432,2.33,20.594,20.594,0,0,0-1.678-7.52A19.328,19.328,0,0,1,886.972,1075.87Zm-31.677,0a19.413,19.413,0,0,1,7.592,2.57,20.569,20.569,0,0,0-1.673,7.52,21.244,21.244,0,0,0-7.457-2.34A18.507,18.507,0,0,1,855.3,1075.87Zm-2.3,25.33a18.555,18.555,0,0,1-9.305-13.91,19.115,19.115,0,0,1,16.9.97c0.247,0.14.49,0.29,0.728,0.44a20.744,20.744,0,0,0,7.488,13.89A19.1,19.1,0,0,1,852.993,1101.2Zm36.281,0a19.1,19.1,0,0,1-15.794,1.4,21.281,21.281,0,0,0,4.517-5.16,1.151,1.151,0,0,0-.391-1.59,1.184,1.184,0,0,0-1.614.39,18.9,18.9,0,0,1-4.847,5.23,18.386,18.386,0,0,1,0-29.77,18.469,18.469,0,0,1,7.593,14.89,18.281,18.281,0,0,1-1.084,6.22,1.143,1.143,0,0,0,.713,1.47,1.175,1.175,0,0,0,1.5-.7,20.522,20.522,0,0,0,1.114-4.9c0.229-.15.464-0.29,0.7-0.42a19.112,19.112,0,0,1,16.9-.97A18.551,18.551,0,0,1,889.274,1101.2Z" transform="translate(-821 -1045)"/>
</svg>
