<svg xmlns="http://www.w3.org/2000/svg" width="62" height="66" viewBox="0 0 62 66">
  <metadata><?xpacket begin="﻿" id="W5M0MpCehiHzreSzNTczkc9d"?>
<x:xmpmeta xmlns:x="adobe:ns:meta/" x:xmptk="Adobe XMP Core 5.6-c138 79.159824, 2016/09/14-01:09:01        ">
   <rdf:RDF xmlns:rdf="http://www.w3.org/1999/02/22-rdf-syntax-ns#">
      <rdf:Description rdf:about=""/>
   </rdf:RDF>
</x:xmpmeta>
                                                                                                    
                                                                                                    
                                                                                                    
                                                                                                    
                                                                                                    
                                                                                                    
                                                                                                    
                                                                                                    
                                                                                                    
                                                                                                    
                                                                                                    
                                                                                                    
                                                                                                    
                                                                                                    
                                                                                                    
                                                                                                    
                                                                                                    
                                                                                                    
                                                                                                    
                                                                                                    
                           
<?xpacket end="w"?></metadata>
<defs>
    <style>
      .cls-1 {
        fill: #1bcac6;
        fill-rule: evenodd;
      }
    </style>
  </defs>
  <path class="cls-1" d="M692,1077.78c0-.11,0-0.22,0-0.33,0-.15,0-0.3-0.007-0.45,0-.04,0-0.07,0-0.11-0.211-9-2.982-17.12-7.319-22.92-3.855-5.17-8.947-8.51-14.588-8.97h-0.221l-0.237.03q-0.432-.03-0.87-0.03h-15.5c-5.758,0-11.026,2.99-15.087,7.92a1.053,1.053,0,0,0-.283.35c-4.832,6.05-7.88,14.91-7.88,24.73,0,18.15,10.407,33,23.25,33h15.5q0.474,0,.942-0.03l0.276,0.03c10.628-.88,19.486-11.66,21.589-26.51,0.012-.11.024-0.23,0.036-0.35A46.331,46.331,0,0,0,692,1078v-0.22h0Zm-36.618,17.54a0.974,0.974,0,0,0-.144-0.36,45.7,45.7,0,0,1-3.1-16.96c0-16.24,7.717-29.56,17.552-30.77,11.185,0.73,20.091,14.29,20.091,30.77s-8.907,30.04-20.093,30.77C663.68,1108.04,658.521,1102.88,655.382,1095.32Zm-21.79-6.37a2.866,2.866,0,0,0,.726-0.39l1.439-2.2,2.325,2.31a1.075,1.075,0,0,0,1.55,0l2.547-2.53,2.657,2.64a1.075,1.075,0,0,0,1.55,0l2.657-2.64,1.819,1.62a44.847,44.847,0,0,0,1.488,5.63l-1.978-.98a1.059,1.059,0,0,0-1.44.33l-1.439,2.2-2.325-2.31a1.075,1.075,0,0,0-1.55,0l-2.547,2.53-2.546-2.53a1.075,1.075,0,0,0-1.55,0l-1.6,1.59A38.09,38.09,0,0,1,633.592,1088.95Zm-1.373-10.41,2.763,1.55a1.184,1.184,0,0,0,1.329-.22l2.546-2.53,2.657,2.53a1.075,1.075,0,0,0,1.55,0l2.658-2.64,4.237,2.55q0.081,2.37.367,4.65l-0.84-.71a1.166,1.166,0,0,0-1.439.11l-2.547,2.53-2.546-2.53a1.076,1.076,0,0,0-1.551,0l-2.546,2.53-2.546-2.53a1.264,1.264,0,0,0-.886-0.33,1.372,1.372,0,0,0-.886.44l-1.555,2.32A44.109,44.109,0,0,1,632.219,1078.54Zm3.617-17.79,2.467,1.63a1.206,1.206,0,0,0,1.218,0l2.657-1.76,2.768,1.87a1.206,1.206,0,0,0,1.218,0l2.768-1.87,3.528,1.7a44.823,44.823,0,0,0-1.464,5.3l-1.4-1.39a1.075,1.075,0,0,0-1.55,0l-2.546,2.53-2.547-2.53a1.075,1.075,0,0,0-1.55,0l-2.546,2.53-2.546-2.53a1.075,1.075,0,0,0-1.55,0l-1.3,1.34A37.5,37.5,0,0,1,635.836,1060.75Zm3.565-5.91,6.985-2.03,2.878,1.87a1.206,1.206,0,0,0,1.218,0l2.768-1.87,3.088,1.49a34.964,34.964,0,0,0-3.129,6.02l-4.055-2.01a1.317,1.317,0,0,0-1.107.11l-2.658,1.76-2.657-1.76a1.206,1.206,0,0,0-1.218,0l-2.657,1.76-2.018-1.42A29.074,29.074,0,0,1,639.4,1054.84Zm6.653,20.08a1.184,1.184,0,0,0-1.329.22l-2.547,2.53-2.546-2.53a1.075,1.075,0,0,0-1.55,0l-2.768,2.75-3.06-1.75a43.738,43.738,0,0,1,.461-4.82,1.239,1.239,0,0,0,.385-0.25l2.436-2.53,2.546,2.53a1.075,1.075,0,0,0,1.55,0l2.547-2.53,2.546,2.53a1.075,1.075,0,0,0,1.55,0l2.547-2.53,1.439,1.43a1.177,1.177,0,0,0,.268.2,50.535,50.535,0,0,0-.594,7.06Zm17.327-27.72a21.8,21.8,0,0,0-5.793,5.34l-3.895-1.93a1.317,1.317,0,0,0-1.107.11l-2.657,1.76-2.658-1.76a1.653,1.653,0,0,0-1-.22l-3.837,1.09a16.32,16.32,0,0,1,10.812-4.39h10.131Zm-27.026,49.13,1.395-1.39,2.546,2.53a1.075,1.075,0,0,0,1.55,0l2.547-2.53,2.546,2.53a1.009,1.009,0,0,0,.775.33,0.877,0.877,0,0,0,.886-0.55l1.661-2.53,3.2,1.59a34.2,34.2,0,0,0,2.871,5.39l-2.083,1.38-2.657-1.76a1.206,1.206,0,0,0-1.218,0l-2.657,1.76-2.657-1.76a1.206,1.206,0,0,0-1.218,0l-2.736,1.81A28.3,28.3,0,0,1,636.355,1096.33Zm16.895,12.47a16.209,16.209,0,0,1-10.548-4.16l1.691-1.12,2.768,1.76a1.206,1.206,0,0,0,1.218,0l2.657-1.76,2.546,1.87a1.206,1.206,0,0,0,1.218,0l2.83-1.87a21.684,21.684,0,0,0,5.789,5.28H653.25Zm17.714-55c-5.732,0-10.537,6.37-12.426,15.51-0.011.06-.023,0.11-0.033,0.16-0.051.25-.1,0.51-0.146,0.76-0.016.09-.031,0.17-0.046,0.26-0.031.18-.062,0.36-0.091,0.54l-0.057.36c-0.03.2-.059,0.41-0.087,0.61-0.017.12-.033,0.25-0.049,0.37-0.023.18-.045,0.37-0.066,0.55-0.017.15-.033,0.3-0.049,0.45-0.017.17-.034,0.34-0.049,0.51-0.01.11-.021,0.22-0.03,0.33-0.02.25-.039,0.5-0.055,0.74-0.007.1-.012,0.19-0.018,0.28-0.013.22-.024,0.44-0.035,0.66,0,0.06-.006.13-0.009,0.19-0.011.28-.02,0.55-0.026,0.83,0,0.07,0,.15,0,0.22-0.006.29-.01,0.58-0.01,0.87s0,0.58.01,0.87c0,0.07,0,.15,0,0.22,0.006,0.28.015,0.55,0.026,0.83,0,0.06.007,0.13,0.009,0.19,0.011,0.22.022,0.44,0.035,0.66,0.006,0.09.011,0.18,0.018,0.28,0.016,0.24.035,0.49,0.055,0.74,0.009,0.11.02,0.22,0.03,0.33,0.015,0.17.032,0.34,0.049,0.51,0.016,0.15.032,0.3,0.049,0.45,0.021,0.18.043,0.37,0.066,0.55,0.016,0.12.032,0.25,0.049,0.37,0.028,0.2.057,0.41,0.087,0.61,0.019,0.12.038,0.24,0.058,0.36q0.043,0.27.09,0.54c0.015,0.09.03,0.17,0.046,0.26,0.046,0.25.095,0.51,0.145,0.76,0.011,0.05.022,0.11,0.034,0.16,1.888,9.14,6.694,15.51,12.426,15.51,7.418,0,13.286-10.67,13.286-24.2S678.382,1053.8,670.964,1053.8Zm-10.924,27.68c0-.07-0.012-0.14-0.017-0.2-0.008-.11-0.015-0.21-0.023-0.31-0.01-.14-0.02-0.28-0.028-0.43l-0.015-.24c-0.012-.22-0.023-0.45-0.032-0.67,0-.04,0-0.08,0-0.13-0.007-.19-0.013-0.39-0.017-0.59,0-.07,0-0.13,0-0.2,0-.23-0.007-0.47-0.007-0.71,0-.21,0-0.41,0-0.62a37.84,37.84,0,0,1,1.824-11.27c1.626,2.75,2.6,7.11,2.6,11.89s-0.973,9.14-2.6,11.89A36.692,36.692,0,0,1,660.04,1081.48ZM670.964,1100c-3.256,0-6.25-3-8.3-7.66,2.345-2.86,3.873-8.31,3.873-14.34s-1.528-11.48-3.873-14.34c2.051-4.66,5.045-7.66,8.3-7.66,5.979,0,11.072,10.12,11.072,22S676.943,1100,670.964,1100Z" transform="translate(-630 -1045)"/>
</svg>
