<svg style="display: none;">
  <!--Бытовая техника-->
  <symbol viewBox="0 0 47.22 62.188" id="appliances">
    <path

      data-name="appliances"
      class="cls-1"
      d="M1080.06,649h-40.9a3.163,3.163,0,0,0-3.16,3.156v55.863a3.163,3.163,0,0,0,3.16,3.156h40.9a3.163,3.163,0,0,0,3.16-3.156V652.155A3.163,3.163,0,0,0,1080.06,649Zm-42.04,12.758h43.18v43.105h-43.18V661.757Zm43.18-9.6v7.588h-28.11v-8.729h26.97A1.141,1.141,0,0,1,1081.2,652.155Zm-42.04-1.141h11.91v8.729h-13.05v-7.588A1.141,1.141,0,0,1,1039.16,651.014Zm40.9,58.145h-40.9a1.141,1.141,0,0,1-1.14-1.141v-1.142h43.18v1.142A1.141,1.141,0,0,1,1080.06,709.159Zm-20.45-42.971a14.973,14.973,0,1,0,15,14.973A15,15,0,0,0,1059.61,666.188Zm0,27.931a12.959,12.959,0,1,1,12.98-12.958A12.982,12.982,0,0,1,1059.61,694.119Zm0-35.585a3.156,3.156,0,1,0-3.16-3.156A3.163,3.163,0,0,0,1059.61,658.534Zm0-4.3a1.142,1.142,0,1,1-1.14,1.141A1.141,1.141,0,0,1,1059.61,654.237Zm-18.3,4.3h6.46a1.007,1.007,0,1,0,0-2.014h-6.46A1.007,1.007,0,0,0,1041.31,658.534Zm24.76-2.149h3.23a1.007,1.007,0,1,0,0-2.014h-3.23A1.007,1.007,0,1,0,1066.07,656.385Zm7.53,0h3.23a1.007,1.007,0,1,0,0-2.014h-3.23A1.007,1.007,0,1,0,1073.6,656.385Zm-13.99,14.1a10.676,10.676,0,1,0,10.7,10.676A10.691,10.691,0,0,0,1059.61,670.485Zm0,19.337a8.662,8.662,0,1,1,8.68-8.661A8.684,8.684,0,0,1,1059.61,689.822Z"
      transform="translate(-1036 -649)"/>
  </symbol>

  <!--Автомойка-->
  <symbol viewBox="0 0 63 63" id="auto">
    <path
      class="cls-1"
      d="M691.075,869.767a3.024,3.024,0,0,1-3.02-3.021,0.925,0.925,0,0,0-1.85,0,3.024,3.024,0,0,1-3.02,3.021,0.925,0.925,0,1,0,0,1.849,3.024,3.024,0,0,1,3.02,3.021,0.925,0.925,0,1,0,1.85,0,3.024,3.024,0,0,1,3.02-3.021A0.925,0.925,0,1,0,691.075,869.767Zm-3.945,2.018a1.093,1.093,0,1,1,0-2.186A1.093,1.093,0,1,1,687.13,871.785Zm-49.315-2.018a3.024,3.024,0,0,1-3.02-3.021,0.925,0.925,0,0,0-1.85,0,3.024,3.024,0,0,1-3.02,3.021,0.925,0.925,0,1,0,0,1.849,3.024,3.024,0,0,1,3.02,3.021,0.925,0.925,0,1,0,1.85,0,3.024,3.024,0,0,1,3.02-3.021A0.925,0.925,0,1,0,637.815,869.767Zm-3.945,2.018a1.093,1.093,0,1,1,0-2.186A1.093,1.093,0,1,1,633.87,871.785Zm31.561-13.854a4.01,4.01,0,0,1-4.006-4.006,0.925,0.925,0,0,0-1.85,0,4.011,4.011,0,0,1-4.007,4.007,0.925,0.925,0,0,0,0,1.849,4.011,4.011,0,0,1,4.007,4.007,0.925,0.925,0,0,0,1.85,0,4.011,4.011,0,0,1,4.007-4.007A0.925,0.925,0,0,0,665.431,857.931Zm-4.931,2.7a5.9,5.9,0,0,0-1.776-1.776,5.9,5.9,0,0,0,1.776-1.776,5.9,5.9,0,0,0,1.776,1.776A5.9,5.9,0,0,0,660.5,860.632Zm19.251,23.56L676.154,874a1.913,1.913,0,0,0-1.8-1.275H646.4A1.913,1.913,0,0,0,644.6,874L641,884.192a0.934,0.934,0,0,0,.872,1.233h37A0.925,0.925,0,0,0,679.751,884.192Zm-36.57-.617,3.162-8.959a0.064,0.064,0,0,1,.058-0.041h27.951a0.066,0.066,0,0,1,.059.041l3.162,8.959H643.181ZM678.13,896.4c-3.284,0-5.856,1.706-5.856,3.884s2.572,3.883,5.856,3.883,5.856-1.705,5.856-3.883S681.414,896.4,678.13,896.4Zm0,5.918c-2.293,0-4.007-1.074-4.007-2.034s1.714-2.034,4.007-2.034,4.007,1.074,4.007,2.034S680.423,902.315,678.13,902.315ZM642.623,896.4c-3.284,0-5.856,1.706-5.856,3.884s2.572,3.883,5.856,3.883,5.856-1.705,5.856-3.883S645.907,896.4,642.623,896.4Zm0,5.918c-2.293,0-4.007-1.074-4.007-2.034s1.714-2.034,4.007-2.034,4.007,1.074,4.007,2.034S644.917,902.315,642.623,902.315Zm47.343-19.726h-4.932a0.925,0.925,0,0,0-.9.7l-0.649,2.6-4.543-12.872a4.879,4.879,0,0,0-4.593-3.249H646.4a4.877,4.877,0,0,0-4.592,3.249l-4.543,12.872-0.65-2.6a0.925,0.925,0,0,0-.9-0.7h-4.931a0.925,0.925,0,0,0-.925.925v3.945a0.925,0.925,0,0,0,.925.925H635.9l-3.152,4.413a4.84,4.84,0,0,0-.907,2.83v11.558a4.866,4.866,0,0,0,1.974,3.913c0,0.01,0,.021,0,0.032v2.959A1.913,1.913,0,0,0,635.719,916h5.918a1.913,1.913,0,0,0,1.911-1.911v-2.034h33.657v2.034A1.913,1.913,0,0,0,679.116,916h5.918a1.913,1.913,0,0,0,1.911-1.911V911.13c0-.011,0-0.022,0-0.032a4.867,4.867,0,0,0,1.975-3.913V895.627a4.836,4.836,0,0,0-.908-2.83l-3.152-4.413h5.107a0.925,0.925,0,0,0,.925-0.925v-3.945A0.924,0.924,0,0,0,689.966,882.589Zm-58.254,3.945v-2.1H635l0.524,2.1h-3.809Zm9.987,27.555a0.062,0.062,0,0,1-.062.062h-5.918a0.061,0.061,0,0,1-.061-0.062v-2.034H641.7v2.034Zm43.4,0a0.062,0.062,0,0,1-.062.062h-5.918a0.061,0.061,0,0,1-.061-0.062v-2.034H685.1v2.034Zm-1.048-3.884H636.705a3.026,3.026,0,0,1-2.875-2.1h53.093A3.025,3.025,0,0,1,684.048,910.205Zm-15.719-9.986v2.1h-15.9v-2.1h15.9ZM652.57,898.37a3.025,3.025,0,0,1,2.875-2.1h9.863a3.027,3.027,0,0,1,2.876,2.1H652.57Zm15.759,5.794v2.1h-15.9v-2.1h15.9Zm18.177-10.292a3,3,0,0,1,.562,1.755V906.26h-16.89V899.3a4.875,4.875,0,0,0-4.87-4.87h-9.863a4.875,4.875,0,0,0-4.87,4.87v6.965h-16.89V895.627a3,3,0,0,1,.562-1.755l3.921-5.488h34.044a0.925,0.925,0,0,0,0-1.85H639l4.554-12.9a3.024,3.024,0,0,1,2.848-2.016h27.952a3.025,3.025,0,0,1,2.848,2.016l4.554,12.9h-5.6a0.925,0.925,0,0,0,0,1.85h6.429Zm2.535-7.338h-3.809l0.524-2.1h3.285v2.1Zm-43.459,6.9h-5.918a0.925,0.925,0,0,0,0,1.85h5.918A0.925,0.925,0,1,0,645.582,893.438Zm35.507,0h-5.918a0.925,0.925,0,0,0,0,1.85h5.918A0.925,0.925,0,1,0,681.089,893.438Z"
      transform="translate(-629 -853)"/>
  </symbol>

</svg>
