<svg xmlns="http://www.w3.org/2000/svg" width="72" height="72" viewBox="0 0 72 72">
  <metadata><?xpacket begin="﻿" id="W5M0MpCehiHzreSzNTczkc9d"?>
<x:xmpmeta xmlns:x="adobe:ns:meta/" x:xmptk="Adobe XMP Core 5.6-c138 79.159824, 2016/09/14-01:09:01        ">
   <rdf:RDF xmlns:rdf="http://www.w3.org/1999/02/22-rdf-syntax-ns#">
      <rdf:Description rdf:about=""/>
   </rdf:RDF>
</x:xmpmeta>
                                                                                                    
                                                                                                    
                                                                                                    
                                                                                                    
                                                                                                    
                                                                                                    
                                                                                                    
                                                                                                    
                                                                                                    
                                                                                                    
                                                                                                    
                                                                                                    
                                                                                                    
                                                                                                    
                                                                                                    
                                                                                                    
                                                                                                    
                                                                                                    
                                                                                                    
                                                                                                    
                           
<?xpacket end="w"?></metadata>
<defs>
    <style>
      .cls-1 {
        fill: #1bcac6;
        fill-rule: evenodd;
      }
    </style>
  </defs>
  <path class="cls-1" d="M854.954,888.607a1.136,1.136,0,0,0-1.514-.539,18.052,18.052,0,0,1-2.876,1.075,1.136,1.136,0,0,0-.808.872l-1.2,6.013a1.277,1.277,0,0,1-1.25,1.025h-3.28a1.278,1.278,0,0,1-1.25-1.025l-1.2-6.013a1.136,1.136,0,0,0-.808-0.872,18.061,18.061,0,0,1-3.993-1.654,1.137,1.137,0,0,0-1.188.044l-5.1,3.4a1.278,1.278,0,0,1-1.608-.159l-2.32-2.32a1.279,1.279,0,0,1-.159-1.609l3.4-5.1a1.137,1.137,0,0,0,.045-1.189,18.053,18.053,0,0,1-1.654-3.992,1.14,1.14,0,0,0-.872-0.809l-6.013-1.2a1.279,1.279,0,0,1-1.025-1.25v-3.281a1.279,1.279,0,0,1,1.025-1.25l6.013-1.2a1.14,1.14,0,0,0,.872-0.809,18.033,18.033,0,0,1,1.654-3.992,1.137,1.137,0,0,0-.045-1.189l-3.4-5.1a1.278,1.278,0,0,1,.159-1.608l2.32-2.32a1.278,1.278,0,0,1,1.608-.159l5.1,3.4a1.137,1.137,0,0,0,1.189.045,18.033,18.033,0,0,1,3.992-1.654,1.137,1.137,0,0,0,.808-0.872l1.2-6.013a1.278,1.278,0,0,1,1.25-1.025H847.3a1.279,1.279,0,0,1,1.25,1.025l1.2,6.013a1.14,1.14,0,0,0,.808.872,18.041,18.041,0,0,1,3.993,1.654,1.135,1.135,0,0,0,1.188-.045l5.1-3.4a1.279,1.279,0,0,1,1.609.159l2.319,2.32a1.278,1.278,0,0,1,.16,1.608l-3.4,5.1a1.137,1.137,0,0,0-.045,1.188,18.064,18.064,0,0,1,1.655,3.993,1.136,1.136,0,0,0,.872.808l6.012,1.2a1.278,1.278,0,0,1,1.025,1.25v3.28a1.278,1.278,0,0,1-1.025,1.25l-6.012,1.2a1.136,1.136,0,0,0-.872.808,18.179,18.179,0,0,1-1.108,2.944,1.137,1.137,0,1,0,2.049.984,20.318,20.318,0,0,0,1.047-2.641l5.342-1.068a3.558,3.558,0,0,0,2.852-3.48v-3.28a3.558,3.558,0,0,0-2.852-3.48l-5.343-1.068a20.3,20.3,0,0,0-1.326-3.2l3.022-4.534a3.557,3.557,0,0,0-.443-4.477l-2.32-2.32a3.557,3.557,0,0,0-4.477-.443l-4.534,3.022a20.4,20.4,0,0,0-3.2-1.327l-1.068-5.342A3.558,3.558,0,0,0,847.3,844h-3.28a3.558,3.558,0,0,0-3.48,2.852l-1.068,5.343a20.3,20.3,0,0,0-3.2,1.326L831.74,850.5a3.559,3.559,0,0,0-4.478.443l-2.32,2.32a3.56,3.56,0,0,0-.443,4.478l3.022,4.533a20.337,20.337,0,0,0-1.326,3.2l-5.343,1.069A3.556,3.556,0,0,0,818,870.023V873.3a3.558,3.558,0,0,0,2.852,3.479l5.343,1.068a20.3,20.3,0,0,0,1.326,3.2l-3.022,4.534a3.559,3.559,0,0,0,.443,4.477l2.32,2.32a3.559,3.559,0,0,0,4.478.443l4.533-3.022a20.436,20.436,0,0,0,3.2,1.327l1.068,5.342a3.558,3.558,0,0,0,3.48,2.852H847.3a3.558,3.558,0,0,0,3.479-2.852l1.069-5.342a20.541,20.541,0,0,0,2.563-1.01A1.137,1.137,0,0,0,854.954,888.607Zm0.556-10.627a1.134,1.134,0,0,0,1.53-.493,12.78,12.78,0,0,0-20.3-14.974,1.137,1.137,0,0,0,1.587,1.628,10.507,10.507,0,0,1,16.687,12.309A1.137,1.137,0,0,0,855.51,877.98ZM835.022,866.8a1.136,1.136,0,0,0-1.445.705,12.782,12.782,0,0,0,19.574,14.516,1.137,1.137,0,0,0-1.333-1.842,10.51,10.51,0,0,1-16.091-11.935A1.137,1.137,0,0,0,835.022,866.8Zm52.79,26.886-3.287-.657a13.915,13.915,0,0,0-.721-1.74l1.86-2.79a2.729,2.729,0,0,0-.34-3.434l-1.525-1.525a2.729,2.729,0,0,0-3.434-.34l-2.79,1.86a13.761,13.761,0,0,0-1.74-.72l-0.657-3.288a2.728,2.728,0,0,0-2.669-2.188h-2.155a2.728,2.728,0,0,0-2.669,2.188l-0.658,3.288a13.884,13.884,0,0,0-1.74.72L862.5,883.2a2.73,2.73,0,0,0-3.434.34l-1.525,1.525a2.729,2.729,0,0,0-.34,3.434l1.86,2.79a13.8,13.8,0,0,0-.929,2.415,1.137,1.137,0,0,0,2.19.613,11.471,11.471,0,0,1,1.051-2.537,1.139,1.139,0,0,0-.044-1.189l-2.236-3.353a0.449,0.449,0,0,1,.056-0.565l1.525-1.525a0.451,0.451,0,0,1,.565-0.056l3.353,2.236a1.139,1.139,0,0,0,1.189.044,11.491,11.491,0,0,1,2.537-1.051,1.136,1.136,0,0,0,.808-0.872l0.79-3.951a0.451,0.451,0,0,1,.44-0.36h2.155a0.451,0.451,0,0,1,.44.36l0.79,3.952a1.136,1.136,0,0,0,.808.871,11.494,11.494,0,0,1,2.537,1.052,1.139,1.139,0,0,0,1.189-.045l3.353-2.235a0.449,0.449,0,0,1,.565.055l1.525,1.525a0.451,0.451,0,0,1,.056.565l-2.236,3.353a1.137,1.137,0,0,0-.044,1.189,11.491,11.491,0,0,1,1.051,2.537,1.134,1.134,0,0,0,.872.808l3.951,0.791a0.449,0.449,0,0,1,.36.439v2.156a0.45,0.45,0,0,1-.36.439l-3.952.79a1.136,1.136,0,0,0-.871.808,11.5,11.5,0,0,1-1.052,2.538,1.137,1.137,0,0,0,.045,1.188l2.235,3.353a0.45,0.45,0,0,1-.056.566l-1.524,1.524a0.449,0.449,0,0,1-.565.056l-3.353-2.236a1.139,1.139,0,0,0-1.189-.044,11.443,11.443,0,0,1-2.537,1.051,1.138,1.138,0,0,0-.809.872l-0.79,3.951a0.448,0.448,0,0,1-.439.36h-2.156a0.449,0.449,0,0,1-.439-0.36l-0.79-3.951a1.137,1.137,0,0,0-.808-0.872,11.5,11.5,0,0,1-2.538-1.051,1.137,1.137,0,0,0-1.188.044l-3.354,2.236a0.45,0.45,0,0,1-.565-0.056l-1.524-1.525a0.449,0.449,0,0,1-.056-0.565l2.236-3.353a1.139,1.139,0,0,0,.044-1.189,11.443,11.443,0,0,1-1.051-2.537,1.137,1.137,0,0,0-.872-0.808l-3.951-.79a0.45,0.45,0,0,1-.36-0.44v-2.155a0.45,0.45,0,0,1,.36-0.44l0.242-.048a1.137,1.137,0,1,0-.447-2.229l-0.241.048a2.729,2.729,0,0,0-2.188,2.669v2.156a2.728,2.728,0,0,0,2.188,2.668l3.287,0.658a13.978,13.978,0,0,0,.721,1.74l-1.86,2.789a2.729,2.729,0,0,0,.34,3.434l1.525,1.525a2.729,2.729,0,0,0,3.434.34l2.789-1.86a13.89,13.89,0,0,0,1.74.721l0.658,3.287A2.729,2.729,0,0,0,870.354,916h2.156a2.728,2.728,0,0,0,2.668-2.188l0.658-3.287a14.041,14.041,0,0,0,1.74-.721l2.789,1.86a2.729,2.729,0,0,0,3.434-.34l1.525-1.525a2.729,2.729,0,0,0,.34-3.434l-1.86-2.79a13.814,13.814,0,0,0,.721-1.739l3.287-.658A2.728,2.728,0,0,0,890,898.509v-2.155A2.729,2.729,0,0,0,887.812,893.685Zm-16.38-.346a4.1,4.1,0,0,1,4.092,4.093,1.137,1.137,0,0,0,2.274,0,6.366,6.366,0,1,0-2.477,5.04,1.137,1.137,0,1,0-1.39-1.8,4.054,4.054,0,0,1-2.5.851A4.093,4.093,0,0,1,871.432,893.339Zm-18.843-21.676a6.926,6.926,0,1,0-6.926,6.926A6.934,6.934,0,0,0,852.589,871.663Zm-11.578,0a4.653,4.653,0,1,1,4.652,4.653A4.657,4.657,0,0,1,841.011,871.663Z" transform="translate(-818 -844)"/>
</svg>
