<svg xmlns="http://www.w3.org/2000/svg" width="71" height="55" viewBox="0 0 71 55">
  <metadata><?xpacket begin="﻿" id="W5M0MpCehiHzreSzNTczkc9d"?>
<x:xmpmeta xmlns:x="adobe:ns:meta/" x:xmptk="Adobe XMP Core 5.6-c138 79.159824, 2016/09/14-01:09:01        ">
   <rdf:RDF xmlns:rdf="http://www.w3.org/1999/02/22-rdf-syntax-ns#">
      <rdf:Description rdf:about=""/>
   </rdf:RDF>
</x:xmpmeta>
                                                                                                    
                                                                                                    
                                                                                                    
                                                                                                    
                                                                                                    
                                                                                                    
                                                                                                    
                                                                                                    
                                                                                                    
                                                                                                    
                                                                                                    
                                                                                                    
                                                                                                    
                                                                                                    
                                                                                                    
                                                                                                    
                                                                                                    
                                                                                                    
                                                                                                    
                                                                                                    
                           
<?xpacket end="w"?></metadata>
<defs>
    <style>
      .cls-1 {
        fill: #1bcac6;
        fill-rule: evenodd;
      }
    </style>
  </defs>
  <path id="Forma_1" data-name="Forma 1" class="cls-1" d="M1088.54,1064.59a12.125,12.125,0,0,0-9.12-4.05,13.025,13.025,0,0,0-5.29,1.45c-0.08.03-.25,0.07-0.25-0.1a15.529,15.529,0,0,0-3.99-9.11,14.282,14.282,0,0,0-10.74-4.78c-3.26,0-6.73,1.9-9.26,3.29a11.979,11.979,0,0,1-2.41,1.2,11.648,11.648,0,0,1-2.39-1.2c-2.53-1.39-5.99-3.29-9.27-3.29a14.266,14.266,0,0,0-10.74,4.78,16.129,16.129,0,0,0-4.08,10.83c0,5.75,2.07,13.91,5.55,21.83a52.147,52.147,0,0,0,4.76,8.82c1.91,2.73,3.57,4.06,5.09,4.06a2.851,2.851,0,0,0,2.69-2.22c0.63-1.74,1.2-3.72,1.8-5.84,1.48-5.2,3.51-12.31,6.49-12.31a0.331,0.331,0,0,1,.33.26,56.738,56.738,0,0,0,4.26,13.91,44.705,44.705,0,0,0,4.01,7.41c1.63,2.33,3.07,3.47,4.4,3.47a2.547,2.547,0,0,0,2.41-1.97c0.54-1.46,1.01-3.13,1.52-4.9,1.22-4.3,2.9-10.18,5.26-10.18h0.17c1.02,0,1.96.93,2.89,2.86a47.71,47.71,0,0,1,2.44,7.36c0.48,1.75.93,3.41,1.45,4.85a2.52,2.52,0,0,0,2.39,1.97c1.32,0,2.76-1.16,4.4-3.53a45.609,45.609,0,0,0,4.01-7.48c2.93-6.71,4.68-13.51,4.68-18.2A13.688,13.688,0,0,0,1088.54,1064.59Zm-41.22,9.19c0,0.44.01,0.9,0.04,1.38,0,0.04.03,0.19-.18,0.17-2.34.01-4.09,1.6-5.71,4.96a60.874,60.874,0,0,0-3.16,9.24v0.03c-0.59,2.05-1.14,3.99-1.74,5.63a0.859,0.859,0,0,1-.23.45c-0.24.08-1.15-.5-2.83-2.9a51.16,51.16,0,0,1-4.51-8.36c-3.28-7.49-5.32-15.45-5.32-20.77,0-6.36,4.54-12.95,12.14-12.95a14.2,14.2,0,0,1,6.95,2.4c0.34,0.22.84,0.6,1.32,0.97,0.19,0.15.38,0.29,0.56,0.42a24.254,24.254,0,0,0,2.26,1.52,12.7,12.7,0,0,0,1.41.74,15.971,15.971,0,0,0,6.23,1.25c2.2,0,5.44-.56,5.39-0.99s-3.97.18-8.03-1.12c-1.05-.34-2.41-0.72-2.41-1.15a1.636,1.636,0,0,1,.65-0.49c0.29-.17.62-0.36,1.03-0.59,2.28-1.25,5.4-2.96,7.97-2.96,7.46,0,11.97,6.35,12.13,12.61a0.276,0.276,0,0,1-.13.28,5.8,5.8,0,0,1-1.49.74,8.5,8.5,0,0,1-1.92-.98c-2.14-1.17-5.06-2.77-7.85-2.77a12.12,12.12,0,0,0-9.11,4.05A13.688,13.688,0,0,0,1047.32,1073.78Zm37.62,17.18a43.567,43.567,0,0,1-3.77,7.05c-1.08,1.56-1.77,2.51-2.07,2.32a1.5,1.5,0,0,1-.24-0.45c-0.48-1.35-.83-2.68-1.3-4.39a47.733,47.733,0,0,0-2.6-7.79c-1.4-2.91-3.1-4.32-5.22-4.32h-0.17c-2.04,0-3.71,1.4-5.1,4.28a50.1,50.1,0,0,0-2.65,7.77c-0.5,1.72-.96,3.35-1.46,4.72a0.477,0.477,0,0,1-.14.23c-0.25.11-.94-0.64-2.12-2.32a42.491,42.491,0,0,1-3.75-6.97c-2.74-6.25-4.44-12.89-4.44-17.31,0-5.25,3.73-10.67,9.98-10.67a11.688,11.688,0,0,1,5.73,1.98c0.28,0.18.69,0.49,1.09,0.8,0.16,0.12.32,0.24,0.47,0.36a21.555,21.555,0,0,0,1.91,1.28,10.608,10.608,0,0,0,1.2.63,13.639,13.639,0,0,0,5.28,1.06c1.87,0,5.47-.53,5.44-1.12-0.03-.38-4.05.12-7.6-0.99a6.391,6.391,0,0,1-1.77-.71,0.542,0.542,0,0,1,.34-0.34c0.24-.15.51-0.31,0.86-0.5,1.89-1.03,4.48-2.45,6.58-2.45,6.26,0,9.99,5.42,9.99,10.67C1089.41,1078.07,1087.7,1084.65,1084.94,1090.96Z" transform="translate(-1021 -1048)"/>
</svg>
