<svg xmlns="http://www.w3.org/2000/svg" width="61" height="71" viewBox="0 0 61 71">
  <metadata><?xpacket begin="﻿" id="W5M0MpCehiHzreSzNTczkc9d"?>
<x:xmpmeta xmlns:x="adobe:ns:meta/" x:xmptk="Adobe XMP Core 5.6-c138 79.159824, 2016/09/14-01:09:01        ">
   <rdf:RDF xmlns:rdf="http://www.w3.org/1999/02/22-rdf-syntax-ns#">
      <rdf:Description rdf:about=""/>
   </rdf:RDF>
</x:xmpmeta>
                                                                                                    
                                                                                                    
                                                                                                    
                                                                                                    
                                                                                                    
                                                                                                    
                                                                                                    
                                                                                                    
                                                                                                    
                                                                                                    
                                                                                                    
                                                                                                    
                                                                                                    
                                                                                                    
                                                                                                    
                                                                                                    
                                                                                                    
                                                                                                    
                                                                                                    
                                                                                                    
                           
<?xpacket end="w"?></metadata>
<defs>
    <style>
      .cls-1 {
        fill: #1bcac6;
        fill-rule: evenodd;
      }
    </style>
  </defs>
  <path class="cls-1" d="M1444.21,1071.48a1.17,1.17,0,0,0,1.56-.53,1.188,1.188,0,0,0-.51-1.59c-0.17-.09-4.19-2.24-5.24-8.61a1.168,1.168,0,0,0-1.03-.98,1.151,1.151,0,0,0-1.21.74c-2.55,6.42,2.25,13.8,2.46,14.11a1.133,1.133,0,0,0,.97.53,1.209,1.209,0,0,0,.65-0.2,1.187,1.187,0,0,0,.33-1.64,19.917,19.917,0,0,1-2.63-6.72A12.193,12.193,0,0,0,1444.21,1071.48Zm5.44,2.46a1.183,1.183,0,0,0-.46-2.32c-2.35.48-6.81,3.06-6.81,9.45a25.188,25.188,0,0,0,1.71,9.63c-2.57.5-4.05,2.13-4.05,4.57,0,2.74,2.47,4.73,5.86,4.73h1.18a4.387,4.387,0,0,0,3.27-1.64,1.181,1.181,0,0,0-.21-1.66,1.164,1.164,0,0,0-1.64.2,2.076,2.076,0,0,1-1.42.73h-1.18c-1.75,0-3.52-.81-3.52-2.36,0-.59,0-2.37,3.52-2.37a1.183,1.183,0,0,0,.98-1.83c-0.02-.04-2.15-3.41-2.15-10C1444.73,1075.07,1449.46,1073.99,1449.65,1073.94Zm33.26,16.76a25.188,25.188,0,0,0,1.71-9.63c0-6.39-4.46-8.97-6.81-9.45a1.183,1.183,0,0,0-.46,2.32c0.2,0.04,4.92,1.07,4.92,7.13,0,6.59-2.13,9.96-2.15,9.99a1.193,1.193,0,0,0-.06,1.21,1.173,1.173,0,0,0,1.04.63c3.52,0,3.52,1.78,3.52,2.37,0,1.55-1.77,2.36-3.52,2.36h-1.18a2.156,2.156,0,0,1-1.43-.73,1.154,1.154,0,0,0-1.63-.2,1.181,1.181,0,0,0-.21,1.66,4.387,4.387,0,0,0,3.27,1.64h1.18c3.4,0,5.86-1.99,5.86-4.73C1486.96,1092.83,1485.48,1091.2,1482.91,1090.7Zm-12.17-.08,2.13-12.91a1.193,1.193,0,0,0-.97-1.36,1.16,1.16,0,0,0-1.34.97l-2.19,13.21h-0.18a1.185,1.185,0,0,0,0,2.37h1.18c3.51,0,3.51,1.78,3.51,2.37,0,1.55-1.77,2.36-3.51,2.36h-1.18a3.538,3.538,0,0,1-3.52-3.55v-16.56a1.17,1.17,0,1,0-2.34,0v16.56a3.538,3.538,0,0,1-3.52,3.55h-1.18c-1.74,0-3.51-.81-3.51-2.36,0-.59,0-2.37,3.51-2.37h1.18a1.185,1.185,0,0,0,0-2.37h-0.18l-2.18-13.21a1.175,1.175,0,0,0-1.35-.97,1.193,1.193,0,0,0-.97,1.36l2.13,12.91c-2.84.4-4.49,2.07-4.49,4.65,0,2.74,2.47,4.73,5.86,4.73h1.18a5.826,5.826,0,0,1,9.38,0h1.18c3.39,0,5.86-1.99,5.86-4.73C1475.23,1092.69,1473.58,1091.02,1470.74,1090.62Zm21.96-51.5c-2.58-5.2-8.79-10.12-12.78-10.12-2.26,0-6.16,3.54-8.12,5.47a12.661,12.661,0,0,0-16.6,0c-1.96-1.93-5.86-5.47-8.12-5.47-3.99,0-10.2,4.92-12.78,10.12a13.017,13.017,0,0,0-1.3,5.26,5.9,5.9,0,0,0,5.87,5.92c2.91,0,4.21-1.93,5.26-3.49,0.13-.19.26-0.37,0.4-0.59l4.7-7.1a1.188,1.188,0,0,0-.33-1.64,1.177,1.177,0,0,0-1.63.33l-4.67,7.07c-0.14.2-.27,0.4-0.41,0.6-1.05,1.57-1.73,2.45-3.32,2.45a3.538,3.538,0,0,1-3.52-3.55,10.533,10.533,0,0,1,1.05-4.2c2.31-4.66,7.89-8.81,10.68-8.81,1,0,3.98,2.35,6.46,4.78-4.41,5.17-6.46,13.82-6.46,22.43,0,10.93,4.75,15.39,16.42,15.39s16.42-4.46,16.42-15.39c0-8.61-2.05-17.26-6.46-22.43,2.48-2.43,5.46-4.78,6.46-4.78,2.79,0,8.37,4.15,10.68,8.81a10.533,10.533,0,0,1,1.05,4.2,3.538,3.538,0,0,1-3.52,3.55c-1.65,0-2.3-.87-3.4-2.55l-5-7.57a1.177,1.177,0,0,0-1.63-.33,1.188,1.188,0,0,0-.33,1.64l5,7.57c1.11,1.69,2.37,3.61,5.36,3.61a5.9,5.9,0,0,0,5.87-5.92A13.017,13.017,0,0,0,1492.7,1039.12Zm-15.12,19.46c0,9.61-3.69,13.02-14.08,13.02s-14.08-3.41-14.08-13.02c0-12.37,4.36-24.85,14.08-24.85S1477.58,1046.21,1477.58,1058.58Zm-8.08,5.38a1.737,1.737,0,0,1-1.31.54,3.906,3.906,0,0,1-3.3-2.54c1.92-.44,3.3-1.76,3.3-3.38,0-1.99-2.06-3.55-4.69-3.55s-4.69,1.56-4.69,3.55c0,1.62,1.37,2.94,3.3,3.38a3.9,3.9,0,0,1-3.29,2.54,1.68,1.68,0,0,1-1.32-.56,1.174,1.174,0,1,0-2.07,1.11,3.92,3.92,0,0,0,3.38,1.82,5.588,5.588,0,0,1,9.38,0,3.941,3.941,0,0,0,3.39-1.83,1.185,1.185,0,0,0-.5-1.59A1.165,1.165,0,0,0,1469.5,1063.96Zm-6-4.19c-1.41,0-2.35-.72-2.35-1.19s0.94-1.18,2.35-1.18c1.43,0,2.35.7,2.35,1.18S1464.93,1059.77,1463.5,1059.77Zm5.28-9.47a1.775,1.775,0,1,0-1.76-1.78A1.773,1.773,0,0,0,1468.78,1050.3Zm-10.56,0a1.775,1.775,0,1,0-1.76-1.78A1.773,1.773,0,0,0,1458.22,1050.3Z" transform="translate(-1433 -1029)"/>
</svg>
